<?xml version="1.0" encoding="UTF-8" standalone="no"?>
<!DOCTYPE svg PUBLIC "-//W3C//DTD SVG 1.1//EN"
 "http://www.w3.org/Graphics/SVG/1.1/DTD/svg11.dtd">
<!-- Generated by graphviz version 8.1.0 (0)
 -->
<!-- Title: test Pages: 1 -->
<svg width="916pt" height="404pt"
 viewBox="0.00 0.00 916.34 404.00" xmlns="http://www.w3.org/2000/svg" xmlns:xlink="http://www.w3.org/1999/xlink">
<g id="graph0" class="graph" transform="scale(1 1) rotate(0) translate(4 400)">
<title>test</title>
<polygon fill="white" stroke="none" points="-4,4 -4,-400 912.34,-400 912.34,4 -4,4"/>
<!-- _e9874bff34 -->
<g id="node1" class="node">
<title>_e9874bff34</title>
<polygon fill="none" stroke="black" points="464,-396 461,-400 440,-400 437,-396 410,-396 410,-360 464,-360 464,-396"/>
<text text-anchor="middle" x="437" y="-372.95" font-family="Times,serif" font-size="14.00">test.py</text>
</g>
<!-- _a07229017c -->
<g id="node2" class="node">
<title>_a07229017c</title>
<polygon fill="none" stroke="black" points="304.88,-324 225.12,-324 225.12,-320 221.12,-320 221.12,-316 225.12,-316 225.12,-296 221.12,-296 221.12,-292 225.12,-292 225.12,-288 304.88,-288 304.88,-324"/>
<polyline fill="none" stroke="black" points="225.12,-320 229.12,-320 229.12,-316 225.12,-316"/>
<polyline fill="none" stroke="black" points="225.12,-296 229.12,-296 229.12,-292 225.12,-292"/>
<text text-anchor="middle" x="265" y="-300.95" font-family="Times,serif" font-size="14.00">HelloWorld</text>
</g>
<!-- _e9874bff34&#45;&gt;_a07229017c -->
<g id="edge1" class="edge">
<title>_e9874bff34&#45;&gt;_a07229017c</title>
<path fill="none" stroke="black" d="M409.75,-365.91C384.47,-355.62 346.23,-340.06 315.39,-327.51"/>
<polygon fill="black" stroke="black" points="316.83,-323.91 306.25,-323.38 314.2,-330.39 316.83,-323.91"/>
</g>
<!-- _a1f979976c -->
<g id="node21" class="node">
<title>_a1f979976c</title>
<polygon fill="none" stroke="black" points="391.97,-306 377.99,-324 350.01,-324 336.03,-306 350.01,-288 377.99,-288 391.97,-306"/>
<text text-anchor="middle" x="364" y="-300.95" font-family="Times,serif" font-size="14.00">call</text>
</g>
<!-- _e9874bff34&#45;&gt;_a1f979976c -->
<g id="edge20" class="edge">
<title>_e9874bff34&#45;&gt;_a1f979976c</title>
<path fill="none" stroke="black" d="M418.96,-359.7C409.49,-350.62 397.79,-339.4 387.61,-329.64"/>
<polygon fill="black" stroke="black" points="390.49,-327.6 380.85,-323.2 385.65,-332.65 390.49,-327.6"/>
</g>
<!-- _a78b18db95 -->
<g id="node22" class="node">
<title>_a78b18db95</title>
<polygon fill="none" stroke="black" points="464,-306 450.5,-324 423.5,-324 410,-306 423.5,-288 450.5,-288 464,-306"/>
<text text-anchor="middle" x="437" y="-300.95" font-family="Times,serif" font-size="14.00">arg</text>
</g>
<!-- _e9874bff34&#45;&gt;_a78b18db95 -->
<g id="edge21" class="edge">
<title>_e9874bff34&#45;&gt;_a78b18db95</title>
<path fill="none" stroke="black" d="M437,-359.7C437,-352.24 437,-343.32 437,-334.97"/>
<polygon fill="black" stroke="black" points="440.5,-335.1 437,-325.1 433.5,-335.1 440.5,-335.1"/>
</g>
<!-- _35efa8b058 -->
<g id="node23" class="node">
<title>_35efa8b058</title>
<polygon fill="none" stroke="black" points="574.29,-306 551.15,-324 504.85,-324 481.71,-306 504.85,-288 551.15,-288 574.29,-306"/>
<text text-anchor="middle" x="528" y="-300.95" font-family="Times,serif" font-size="14.00">FunDec</text>
</g>
<!-- _e9874bff34&#45;&gt;_35efa8b058 -->
<g id="edge22" class="edge">
<title>_e9874bff34&#45;&gt;_35efa8b058</title>
<path fill="none" stroke="black" d="M459.49,-359.7C470.76,-351.03 484.58,-340.4 496.85,-330.96"/>
<polygon fill="black" stroke="black" points="498.66,-333.22 504.45,-324.35 494.39,-327.67 498.66,-333.22"/>
</g>
<!-- _c4fc9b145f -->
<g id="node28" class="node">
<title>_c4fc9b145f</title>
<polygon fill="none" stroke="black" points="733.84,-306 715.42,-324 678.58,-324 660.16,-306 678.58,-288 715.42,-288 733.84,-306"/>
<text text-anchor="middle" x="697" y="-300.95" font-family="Times,serif" font-size="14.00">dfunc</text>
</g>
<!-- _e9874bff34&#45;&gt;_c4fc9b145f -->
<g id="edge27" class="edge">
<title>_e9874bff34&#45;&gt;_c4fc9b145f</title>
<path fill="none" stroke="black" d="M464.33,-369.64C510.68,-357.16 604.84,-331.81 658.07,-317.48"/>
<polygon fill="black" stroke="black" points="658.71,-320.66 667.46,-314.68 656.89,-313.9 658.71,-320.66"/>
</g>
<!-- _a48bd1faf8 -->
<g id="node3" class="node">
<title>_a48bd1faf8</title>
<polygon fill="none" stroke="black" points="207.07,-234 183.03,-252 134.97,-252 110.93,-234 134.97,-216 183.03,-216 207.07,-234"/>
<text text-anchor="middle" x="159" y="-228.95" font-family="Times,serif" font-size="14.00">__init__</text>
</g>
<!-- _a07229017c&#45;&gt;_a48bd1faf8 -->
<g id="edge2" class="edge">
<title>_a07229017c&#45;&gt;_a48bd1faf8</title>
<path fill="none" stroke="black" d="M238.53,-287.52C224.71,-278.4 207.66,-267.13 192.89,-257.38"/>
<polygon fill="black" stroke="black" points="195.32,-254.13 185.04,-251.54 191.46,-259.97 195.32,-254.13"/>
</g>
<!-- _7890e88b0c -->
<g id="node19" class="node">
<title>_7890e88b0c</title>
<polygon fill="none" stroke="black" points="279,-234 265.5,-252 238.5,-252 225,-234 238.5,-216 265.5,-216 279,-234"/>
<text text-anchor="middle" x="252" y="-228.95" font-family="Times,serif" font-size="14.00">a</text>
</g>
<!-- _a07229017c&#45;&gt;_7890e88b0c -->
<g id="edge18" class="edge">
<title>_a07229017c&#45;&gt;_7890e88b0c</title>
<path fill="none" stroke="black" d="M261.79,-287.7C260.39,-280.15 258.71,-271.12 257.14,-262.68"/>
<polygon fill="black" stroke="black" points="260.44,-262.3 255.18,-253.1 253.56,-263.58 260.44,-262.3"/>
</g>
<!-- _a8f33f1d75 -->
<g id="node20" class="node">
<title>_a8f33f1d75</title>
<polygon fill="none" stroke="black" points="357.34,-234 342.17,-252 311.83,-252 296.66,-234 311.83,-216 342.17,-216 357.34,-234"/>
<text text-anchor="middle" x="327" y="-228.95" font-family="Times,serif" font-size="14.00">for_</text>
</g>
<!-- _a07229017c&#45;&gt;_a8f33f1d75 -->
<g id="edge19" class="edge">
<title>_a07229017c&#45;&gt;_a8f33f1d75</title>
<path fill="none" stroke="black" d="M280.33,-287.7C287.68,-279.39 296.64,-269.28 304.73,-260.14"/>
<polygon fill="black" stroke="black" points="306.84,-262.91 310.85,-253.1 301.6,-258.27 306.84,-262.91"/>
</g>
<!-- _b8d24606ce -->
<g id="node4" class="node">
<title>_b8d24606ce</title>
<polygon fill="none" stroke="black" points="95,-174 53,-174 53,-150 95,-150 107,-162 95,-174"/>
<text text-anchor="middle" x="80" y="-156.95" font-family="Times,serif" font-size="14.00">self</text>
</g>
<!-- _a48bd1faf8&#45;&gt;_b8d24606ce -->
<g id="edge3" class="edge">
<title>_a48bd1faf8&#45;&gt;_b8d24606ce</title>
<path fill="none" stroke="black" d="M139.47,-215.7C129.88,-207.2 118.16,-196.81 107.67,-187.51"/>
<polygon fill="black" stroke="black" points="110.38,-185.36 100.58,-181.35 105.74,-190.6 110.38,-185.36"/>
</g>
<!-- _7e188c1b6e -->
<g id="node5" class="node">
<title>_7e188c1b6e</title>
<polygon fill="none" stroke="black" points="192.88,-162 175.94,-180 142.06,-180 125.12,-162 142.06,-144 175.94,-144 192.88,-162"/>
<text text-anchor="middle" x="159" y="-156.95" font-family="Times,serif" font-size="14.00">child</text>
</g>
<!-- _a48bd1faf8&#45;&gt;_7e188c1b6e -->
<g id="edge4" class="edge">
<title>_a48bd1faf8&#45;&gt;_7e188c1b6e</title>
<path fill="none" stroke="black" d="M159,-215.7C159,-208.24 159,-199.32 159,-190.97"/>
<polygon fill="black" stroke="black" points="162.5,-191.1 159,-181.1 155.5,-191.1 162.5,-191.1"/>
</g>
<!-- _ef44b9f538 -->
<g id="node6" class="node">
<title>_ef44b9f538</title>
<polygon fill="none" stroke="black" points="297.25,-180 210.75,-180 210.75,-176 206.75,-176 206.75,-172 210.75,-172 210.75,-152 206.75,-152 206.75,-148 210.75,-148 210.75,-144 297.25,-144 297.25,-180"/>
<polyline fill="none" stroke="black" points="210.75,-176 214.75,-176 214.75,-172 210.75,-172"/>
<polyline fill="none" stroke="black" points="210.75,-152 214.75,-152 214.75,-148 210.75,-148"/>
<text text-anchor="middle" x="254" y="-156.95" font-family="Times,serif" font-size="14.00">HelloWorld2</text>
</g>
<!-- _a48bd1faf8&#45;&gt;_ef44b9f538 -->
<g id="edge5" class="edge">
<title>_a48bd1faf8&#45;&gt;_ef44b9f538</title>
<path fill="none" stroke="black" d="M182.48,-215.7C194.36,-206.95 208.95,-196.19 221.85,-186.69"/>
<polygon fill="black" stroke="black" points="223.48,-189.1 229.46,-180.35 219.33,-183.46 223.48,-189.1"/>
</g>
<!-- _ef5ac103fb -->
<g id="node7" class="node">
<title>_ef5ac103fb</title>
<polygon fill="none" stroke="black" points="111.07,-90 87.03,-108 38.97,-108 14.93,-90 38.97,-72 87.03,-72 111.07,-90"/>
<text text-anchor="middle" x="63" y="-84.95" font-family="Times,serif" font-size="14.00">__init__</text>
</g>
<!-- _ef44b9f538&#45;&gt;_ef5ac103fb -->
<g id="edge6" class="edge">
<title>_ef44b9f538&#45;&gt;_ef5ac103fb</title>
<path fill="none" stroke="black" d="M210.66,-145.12C179.02,-133.52 136.35,-117.88 105.02,-106.4"/>
<polygon fill="black" stroke="black" points="106.46,-102.83 95.86,-102.68 104.05,-109.4 106.46,-102.83"/>
</g>
<!-- _c3bee27e32 -->
<g id="node10" class="node">
<title>_c3bee27e32</title>
<polygon fill="none" stroke="black" points="183,-90 169.5,-108 142.5,-108 129,-90 142.5,-72 169.5,-72 183,-90"/>
<text text-anchor="middle" x="156" y="-84.95" font-family="Times,serif" font-size="14.00">a</text>
</g>
<!-- _ef44b9f538&#45;&gt;_c3bee27e32 -->
<g id="edge9" class="edge">
<title>_ef44b9f538&#45;&gt;_c3bee27e32</title>
<path fill="none" stroke="black" d="M229.52,-143.52C215.06,-133.19 196.76,-120.12 182.04,-109.6"/>
<polygon fill="black" stroke="black" points="184.57,-106.39 174.4,-103.43 180.5,-112.09 184.57,-106.39"/>
</g>
<!-- _4c7a56fdb2 -->
<g id="node11" class="node">
<title>_4c7a56fdb2</title>
<polygon fill="none" stroke="black" points="306.79,-90 280.4,-108 227.6,-108 201.21,-90 227.6,-72 280.4,-72 306.79,-90"/>
<text text-anchor="middle" x="254" y="-84.95" font-family="Times,serif" font-size="14.00">decorator</text>
</g>
<!-- _ef44b9f538&#45;&gt;_4c7a56fdb2 -->
<g id="edge10" class="edge">
<title>_ef44b9f538&#45;&gt;_4c7a56fdb2</title>
<path fill="none" stroke="black" d="M254,-143.7C254,-136.24 254,-127.32 254,-118.97"/>
<polygon fill="black" stroke="black" points="257.5,-119.1 254,-109.1 250.5,-119.1 257.5,-119.1"/>
</g>
<!-- _fae3eeab6f -->
<g id="node12" class="node">
<title>_fae3eeab6f</title>
<polygon fill="none" stroke="black" points="380.97,-90 366.99,-108 339.01,-108 325.03,-90 339.01,-72 366.99,-72 380.97,-90"/>
<text text-anchor="middle" x="353" y="-84.95" font-family="Times,serif" font-size="14.00">xyz</text>
</g>
<!-- _ef44b9f538&#45;&gt;_fae3eeab6f -->
<g id="edge11" class="edge">
<title>_ef44b9f538&#45;&gt;_fae3eeab6f</title>
<path fill="none" stroke="black" d="M278.73,-143.52C293.24,-133.25 311.58,-120.29 326.41,-109.8"/>
<polygon fill="black" stroke="black" points="327.97,-112.28 334.12,-103.65 323.93,-106.56 327.97,-112.28"/>
</g>
<!-- _e24f323bf2 -->
<g id="node18" class="node">
<title>_e24f323bf2</title>
<polygon fill="none" stroke="black" points="458.75,-90 443.87,-108 414.13,-108 399.25,-90 414.13,-72 443.87,-72 458.75,-90"/>
<text text-anchor="middle" x="429" y="-84.95" font-family="Times,serif" font-size="14.00">tesx</text>
</g>
<!-- _ef44b9f538&#45;&gt;_e24f323bf2 -->
<g id="edge17" class="edge">
<title>_ef44b9f538&#45;&gt;_e24f323bf2</title>
<path fill="none" stroke="black" d="M297.66,-144.49C324.42,-134.24 359.31,-120.66 390,-108 392.51,-106.96 395.1,-105.88 397.7,-104.77"/>
<polygon fill="black" stroke="black" points="398.81,-107.68 406.61,-100.51 396.04,-101.25 398.81,-107.68"/>
</g>
<!-- _4df4b30c9d -->
<g id="node8" class="node">
<title>_4df4b30c9d</title>
<polygon fill="none" stroke="black" points="42,-30 0,-30 0,-6 42,-6 54,-18 42,-30"/>
<text text-anchor="middle" x="27" y="-12.95" font-family="Times,serif" font-size="14.00">selx</text>
</g>
<!-- _ef5ac103fb&#45;&gt;_4df4b30c9d -->
<g id="edge7" class="edge">
<title>_ef5ac103fb&#45;&gt;_4df4b30c9d</title>
<path fill="none" stroke="black" d="M54.1,-71.7C50.09,-63.9 45.26,-54.51 40.8,-45.83"/>
<polygon fill="black" stroke="black" points="43.48,-44.4 35.8,-37.1 37.26,-47.6 43.48,-44.4"/>
</g>
<!-- _fbcc6684f4 -->
<g id="node9" class="node">
<title>_fbcc6684f4</title>
<polygon fill="none" stroke="black" points="126,-18 112.5,-36 85.5,-36 72,-18 85.5,0 112.5,0 126,-18"/>
<text text-anchor="middle" x="99" y="-12.95" font-family="Times,serif" font-size="14.00">i</text>
</g>
<!-- _ef5ac103fb&#45;&gt;_fbcc6684f4 -->
<g id="edge8" class="edge">
<title>_ef5ac103fb&#45;&gt;_fbcc6684f4</title>
<path fill="none" stroke="black" d="M71.9,-71.7C75.91,-63.9 80.74,-54.51 85.2,-45.83"/>
<polygon fill="black" stroke="black" points="88.74,-47.6 90.2,-37.1 82.52,-44.4 88.74,-47.6"/>
</g>
<!-- _b812f702e7 -->
<g id="node13" class="node">
<title>_b812f702e7</title>
<polygon fill="none" stroke="black" points="224,-30 182,-30 182,-6 224,-6 236,-18 224,-30"/>
<text text-anchor="middle" x="209" y="-12.95" font-family="Times,serif" font-size="14.00">self</text>
</g>
<!-- _fae3eeab6f&#45;&gt;_b812f702e7 -->
<g id="edge12" class="edge">
<title>_fae3eeab6f&#45;&gt;_b812f702e7</title>
<path fill="none" stroke="black" d="M332.98,-79.27C310.61,-68.39 273.91,-50.55 246.23,-37.1"/>
<polygon fill="black" stroke="black" points="248.01,-33.58 237.48,-32.36 244.95,-39.88 248.01,-33.58"/>
</g>
<!-- _2ef74493a6 -->
<g id="node14" class="node">
<title>_2ef74493a6</title>
<polygon fill="none" stroke="black" points="308,-18 294.5,-36 267.5,-36 254,-18 267.5,0 294.5,0 308,-18"/>
<text text-anchor="middle" x="281" y="-12.95" font-family="Times,serif" font-size="14.00">a</text>
</g>
<!-- _fae3eeab6f&#45;&gt;_2ef74493a6 -->
<g id="edge13" class="edge">
<title>_fae3eeab6f&#45;&gt;_2ef74493a6</title>
<path fill="none" stroke="black" d="M337.38,-73.81C327.53,-64.23 314.64,-51.7 303.67,-41.04"/>
<polygon fill="black" stroke="black" points="306.71,-39.14 297.1,-34.68 301.83,-44.16 306.71,-39.14"/>
</g>
<!-- _cc254bd544 -->
<g id="node15" class="node">
<title>_cc254bd544</title>
<polygon fill="none" stroke="black" points="380,-18 366.5,-36 339.5,-36 326,-18 339.5,0 366.5,0 380,-18"/>
<text text-anchor="middle" x="353" y="-12.95" font-family="Times,serif" font-size="14.00">i</text>
</g>
<!-- _fae3eeab6f&#45;&gt;_cc254bd544 -->
<g id="edge14" class="edge">
<title>_fae3eeab6f&#45;&gt;_cc254bd544</title>
<path fill="none" stroke="black" d="M353,-71.7C353,-64.24 353,-55.32 353,-46.97"/>
<polygon fill="black" stroke="black" points="356.5,-47.1 353,-37.1 349.5,-47.1 356.5,-47.1"/>
</g>
<!-- _c8cf2eeee0 -->
<g id="node16" class="node">
<title>_c8cf2eeee0</title>
<polygon fill="none" stroke="black" points="452,-18 438.5,-36 411.5,-36 398,-18 411.5,0 438.5,0 452,-18"/>
<text text-anchor="middle" x="425" y="-12.95" font-family="Times,serif" font-size="14.00">f</text>
</g>
<!-- _fae3eeab6f&#45;&gt;_c8cf2eeee0 -->
<g id="edge15" class="edge">
<title>_fae3eeab6f&#45;&gt;_c8cf2eeee0</title>
<path fill="none" stroke="black" d="M368.62,-73.81C378.47,-64.23 391.36,-51.7 402.33,-41.04"/>
<polygon fill="black" stroke="black" points="404.17,-44.16 408.9,-34.68 399.29,-39.14 404.17,-44.16"/>
</g>
<!-- _1ad2be533a -->
<g id="node17" class="node">
<title>_1ad2be533a</title>
<polygon fill="none" stroke="black" points="524,-18 510.5,-36 483.5,-36 470,-18 483.5,0 510.5,0 524,-18"/>
<text text-anchor="middle" x="497" y="-12.95" font-family="Times,serif" font-size="14.00">ho</text>
</g>
<!-- _fae3eeab6f&#45;&gt;_1ad2be533a -->
<g id="edge16" class="edge">
<title>_fae3eeab6f&#45;&gt;_1ad2be533a</title>
<path fill="none" stroke="black" d="M373.02,-79.27C397.66,-67.29 439.69,-46.86 467.9,-33.15"/>
<polygon fill="black" stroke="black" points="469.14,-35.95 476.61,-28.43 466.08,-29.65 469.14,-35.95"/>
</g>
<!-- _4a983c5ea4 -->
<g id="node24" class="node">
<title>_4a983c5ea4</title>
<polygon fill="none" stroke="black" points="436.34,-234 421.17,-252 390.83,-252 375.66,-234 390.83,-216 421.17,-216 436.34,-234"/>
<text text-anchor="middle" x="406" y="-228.95" font-family="Times,serif" font-size="14.00">data</text>
</g>
<!-- _35efa8b058&#45;&gt;_4a983c5ea4 -->
<g id="edge23" class="edge">
<title>_35efa8b058&#45;&gt;_4a983c5ea4</title>
<path fill="none" stroke="black" d="M501.83,-289.98C482.33,-278.8 455.7,-263.52 435.46,-251.9"/>
<polygon fill="black" stroke="black" points="437.51,-248.47 427.1,-246.53 434.03,-254.54 437.51,-248.47"/>
</g>
<!-- _795301cef8 -->
<g id="node25" class="node">
<title>_795301cef8</title>
<polygon fill="none" stroke="black" points="508,-234 494.5,-252 467.5,-252 454,-234 467.5,-216 494.5,-216 508,-234"/>
<text text-anchor="middle" x="481" y="-228.95" font-family="Times,serif" font-size="14.00">a</text>
</g>
<!-- _35efa8b058&#45;&gt;_795301cef8 -->
<g id="edge24" class="edge">
<title>_35efa8b058&#45;&gt;_795301cef8</title>
<path fill="none" stroke="black" d="M516.38,-287.7C510.98,-279.64 504.43,-269.89 498.45,-260.98"/>
<polygon fill="black" stroke="black" points="500.96,-259.46 492.48,-253.1 495.15,-263.36 500.96,-259.46"/>
</g>
<!-- _9adc91acdd -->
<g id="node26" class="node">
<title>_9adc91acdd</title>
<polygon fill="none" stroke="black" points="580,-234 566.5,-252 539.5,-252 526,-234 539.5,-216 566.5,-216 580,-234"/>
<text text-anchor="middle" x="553" y="-228.95" font-family="Times,serif" font-size="14.00">b</text>
</g>
<!-- _35efa8b058&#45;&gt;_9adc91acdd -->
<g id="edge25" class="edge">
<title>_35efa8b058&#45;&gt;_9adc91acdd</title>
<path fill="none" stroke="black" d="M534.18,-287.7C536.9,-280.07 540.17,-270.92 543.22,-262.4"/>
<polygon fill="black" stroke="black" points="546.82,-263.7 546.89,-253.1 540.23,-261.34 546.82,-263.7"/>
</g>
<!-- _3856c53989 -->
<g id="node27" class="node">
<title>_3856c53989</title>
<polygon fill="none" stroke="black" points="652,-234 638.5,-252 611.5,-252 598,-234 611.5,-216 638.5,-216 652,-234"/>
<text text-anchor="middle" x="625" y="-228.95" font-family="Times,serif" font-size="14.00">c</text>
</g>
<!-- _35efa8b058&#45;&gt;_3856c53989 -->
<g id="edge26" class="edge">
<title>_35efa8b058&#45;&gt;_3856c53989</title>
<path fill="none" stroke="black" d="M551.48,-288.05C565.88,-277.67 584.32,-264.36 599.13,-253.67"/>
<polygon fill="black" stroke="black" points="600.75,-256.09 606.82,-247.4 596.66,-250.41 600.75,-256.09"/>
</g>
<!-- _21d408eabf -->
<g id="node29" class="node">
<title>_21d408eabf</title>
<polygon fill="none" stroke="black" points="724,-234 710.5,-252 683.5,-252 670,-234 683.5,-216 710.5,-216 724,-234"/>
<text text-anchor="middle" x="697" y="-228.95" font-family="Times,serif" font-size="14.00">arg</text>
</g>
<!-- _c4fc9b145f&#45;&gt;_21d408eabf -->
<g id="edge28" class="edge">
<title>_c4fc9b145f&#45;&gt;_21d408eabf</title>
<path fill="none" stroke="black" d="M697,-287.7C697,-280.24 697,-271.32 697,-262.97"/>
<polygon fill="black" stroke="black" points="700.5,-263.1 697,-253.1 693.5,-263.1 700.5,-263.1"/>
</g>
<!-- _57d8039c43 -->
<g id="node30" class="node">
<title>_57d8039c43</title>
<polygon fill="none" stroke="black" points="805.52,-234 789.76,-252 758.24,-252 742.48,-234 758.24,-216 789.76,-216 805.52,-234"/>
<text text-anchor="middle" x="774" y="-228.95" font-family="Times,serif" font-size="14.00">func</text>
</g>
<!-- _c4fc9b145f&#45;&gt;_57d8039c43 -->
<g id="edge29" class="edge">
<title>_c4fc9b145f&#45;&gt;_57d8039c43</title>
<path fill="none" stroke="black" d="M715.64,-288.05C725.57,-279.03 737.93,-267.79 748.71,-257.99"/>
<polygon fill="black" stroke="black" points="750.54,-261.15 755.59,-251.83 745.83,-255.97 750.54,-261.15"/>
</g>
<!-- _f3e0521305 -->
<g id="node31" class="node">
<title>_f3e0521305</title>
<polygon fill="none" stroke="black" points="756,-162 742.5,-180 715.5,-180 702,-162 715.5,-144 742.5,-144 756,-162"/>
<text text-anchor="middle" x="729" y="-156.95" font-family="Times,serif" font-size="14.00">f</text>
</g>
<!-- _57d8039c43&#45;&gt;_f3e0521305 -->
<g id="edge30" class="edge">
<title>_57d8039c43&#45;&gt;_f3e0521305</title>
<path fill="none" stroke="black" d="M762.88,-215.7C757.75,-207.73 751.56,-198.1 745.88,-189.26"/>
<polygon fill="black" stroke="black" points="748.35,-187.62 740,-181.1 742.46,-191.41 748.35,-187.62"/>
</g>
<!-- _07a45d536f -->
<g id="node32" class="node">
<title>_07a45d536f</title>
<polygon fill="none" stroke="black" points="864.11,-162 841.56,-180 796.44,-180 773.89,-162 796.44,-144 841.56,-144 864.11,-162"/>
<text text-anchor="middle" x="819" y="-156.95" font-family="Times,serif" font-size="14.00">execute</text>
</g>
<!-- _57d8039c43&#45;&gt;_07a45d536f -->
<g id="edge31" class="edge">
<title>_57d8039c43&#45;&gt;_07a45d536f</title>
<path fill="none" stroke="black" d="M785.12,-215.7C790.25,-207.73 796.44,-198.1 802.12,-189.26"/>
<polygon fill="black" stroke="black" points="805.54,-191.41 808,-181.1 799.65,-187.62 805.54,-191.41"/>
</g>
<!-- _d9569e611e -->
<g id="node33" class="node">
<title>_d9569e611e</title>
<polygon fill="none" stroke="black" points="803.34,-90 788.17,-108 757.83,-108 742.66,-90 757.83,-72 788.17,-72 803.34,-90"/>
<text text-anchor="middle" x="773" y="-84.95" font-family="Times,serif" font-size="14.00">args</text>
</g>
<!-- _07a45d536f&#45;&gt;_d9569e611e -->
<g id="edge32" class="edge">
<title>_07a45d536f&#45;&gt;_d9569e611e</title>
<path fill="none" stroke="black" d="M807.63,-143.7C802.39,-135.73 796.07,-126.1 790.26,-117.26"/>
<polygon fill="black" stroke="black" points="792.66,-115.54 784.24,-109.1 786.81,-119.38 792.66,-115.54"/>
</g>
<!-- _12b3e9adec -->
<g id="node34" class="node">
<title>_12b3e9adec</title>
<polygon fill="none" stroke="black" points="908.34,-90 886.67,-108 843.33,-108 821.66,-90 843.33,-72 886.67,-72 908.34,-90"/>
<text text-anchor="middle" x="865" y="-84.95" font-family="Times,serif" font-size="14.00">kwargs</text>
</g>
<!-- _07a45d536f&#45;&gt;_12b3e9adec -->
<g id="edge33" class="edge">
<title>_07a45d536f&#45;&gt;_12b3e9adec</title>
<path fill="none" stroke="black" d="M830.37,-143.7C835.61,-135.73 841.93,-126.1 847.74,-117.26"/>
<polygon fill="black" stroke="black" points="851.19,-119.38 853.76,-109.1 845.34,-115.54 851.19,-119.38"/>
</g>
</g>
</svg>
