<svg xmlns="http://www.w3.org/2000/svg" xmlns:xlink="http://www.w3.org/1999/xlink" viewBox="17.46 194.14 420.81 105.51">
<g id="graph0" class="graph" transform="translate(18.50424451827874,298.5989970926512) scale(0.13679353039025108)">
<title>metadata</title>
<polygon fill="white" stroke="transparent" points="-4,4 -4,-760 3064.93,-760 3064.93,4 -4,4"/>
<!-- 2011 -->
<g id="node1" class="node">
<title>2011</title>
<text text-anchor="middle" x="27" y="-733.8" font-family="Times,serif" font-size="14.00">2011</text>
</g>
<!-- 316 -->
<g id="node2" class="node">
<title>316</title>
<ellipse fill="none" stroke="black" cx="2247" cy="-738" rx="27" ry="18"/>
<text text-anchor="middle" x="2247" y="-733.8" font-family="Times,serif" font-size="14.00">316</text>
</g>
<!-- 317 -->
<g id="node3" class="node">
<title>317</title>
<ellipse fill="none" stroke="black" cx="1569" cy="-738" rx="27" ry="18"/>
<text text-anchor="middle" x="1569" y="-733.8" font-family="Times,serif" font-size="14.00">317</text>
</g>
<!-- 317&#45;&gt;316 -->
<g id="edge167" class="edge">
<title>317-&gt;316</title>
<path fill="none" stroke="black" d="M1596.15,-738C1800.74,-738 2005.34,-738 2209.93,-738"/>
<polygon fill="black" stroke="black" points="2209.99,-741.5 2219.99,-738 2209.99,-734.5 2209.99,-741.5"/>
</g>
<!-- 2012 -->
<g id="node4" class="node">
<title>2012</title>
<text text-anchor="middle" x="27" y="-661.8" font-family="Times,serif" font-size="14.00">2012</text>
</g>
<!-- 2012&#45;&gt;2011 -->
<!-- 311 -->
<g id="node5" class="node">
<title>311</title>
<ellipse fill="none" stroke="black" cx="1436" cy="-666" rx="27" ry="18"/>
<text text-anchor="middle" x="1436" y="-661.8" font-family="Times,serif" font-size="14.00">311</text>
</g>
<!-- 311&#45;&gt;317 -->
<g id="edge161" class="edge">
<title>311-&gt;317</title>
<path fill="none" stroke="black" d="M1456.49,-677.78C1478.59,-689.41 1513.98,-708.04 1539.16,-721.3"/>
<polygon fill="black" stroke="black" points="1537.79,-724.53 1548.27,-726.09 1541.05,-718.33 1537.79,-724.53"/>
</g>
<!-- 312 -->
<g id="node6" class="node">
<title>312</title>
<ellipse fill="none" stroke="black" cx="2418" cy="-666" rx="27" ry="18"/>
<text text-anchor="middle" x="2418" y="-661.8" font-family="Times,serif" font-size="14.00">312</text>
</g>
<!-- 312&#45;&gt;316 -->
<g id="edge162" class="edge">
<title>312-&gt;316</title>
<path fill="none" stroke="black" d="M2395.64,-676.15C2365.82,-688.36 2312.82,-710.05 2278.83,-723.97"/>
<polygon fill="black" stroke="black" points="2277.29,-720.82 2269.36,-727.85 2279.94,-727.3 2277.29,-720.82"/>
</g>
<!-- 313 -->
<g id="node7" class="node">
<title>313</title>
<ellipse fill="none" stroke="black" cx="1508" cy="-666" rx="27" ry="18"/>
<text text-anchor="middle" x="1508" y="-661.8" font-family="Times,serif" font-size="14.00">313</text>
</g>
<!-- 314 -->
<g id="node8" class="node">
<title>314</title>
<ellipse fill="none" stroke="black" cx="825" cy="-666" rx="27" ry="18"/>
<text text-anchor="middle" x="825" y="-661.8" font-family="Times,serif" font-size="14.00">314</text>
</g>
<!-- 314&#45;&gt;313 -->
<g id="edge163" class="edge">
<title>314-&gt;313</title>
<path fill="none" stroke="black" d="M852.04,-663.74C935.12,-656.92 1194,-636.62 1409,-630 1432.99,-629.26 1440.35,-622.06 1463,-630 1471.23,-632.89 1479.08,-637.98 1485.84,-643.45"/>
<polygon fill="black" stroke="black" points="1483.96,-646.46 1493.78,-650.43 1488.58,-641.2 1483.96,-646.46"/>
</g>
<!-- 315 -->
<g id="node9" class="node">
<title>315</title>
<ellipse fill="none" stroke="black" cx="753" cy="-666" rx="27" ry="18"/>
<text text-anchor="middle" x="753" y="-661.8" font-family="Times,serif" font-size="14.00">315</text>
</g>
<!-- 315&#45;&gt;312 -->
<g id="edge164" class="edge">
<title>315-&gt;312</title>
<path fill="none" stroke="black" d="M767.22,-650.43C775.37,-642.68 786.29,-634.11 798,-630 877.21,-602.21 2226.12,-616.67 2309,-630 2335.5,-634.26 2364.28,-644 2385.61,-652.28"/>
<polygon fill="black" stroke="black" points="2384.56,-655.63 2395.15,-656.07 2387.15,-649.12 2384.56,-655.63"/>
</g>
<!-- 315&#45;&gt;313 -->
<g id="edge165" class="edge">
<title>315-&gt;313</title>
<path fill="none" stroke="black" d="M767.22,-650.43C775.37,-642.68 786.29,-634.11 798,-630 832.86,-617.77 1428.14,-617.77 1463,-630 1471.23,-632.89 1479.08,-637.98 1485.84,-643.45"/>
<polygon fill="black" stroke="black" points="1483.96,-646.46 1493.78,-650.43 1488.58,-641.2 1483.96,-646.46"/>
</g>
<!-- 315&#45;&gt;314 -->
<g id="edge166" class="edge">
<title>315-&gt;314</title>
<path fill="none" stroke="black" d="M780,-666C782.61,-666 785.23,-666 787.84,-666"/>
<polygon fill="black" stroke="black" points="787.93,-669.5 797.93,-666 787.93,-662.5 787.93,-669.5"/>
</g>
<!-- 2013 -->
<g id="node10" class="node">
<title>2013</title>
<text text-anchor="middle" x="27" y="-589.8" font-family="Times,serif" font-size="14.00">2013</text>
</g>
<!-- 2013&#45;&gt;2012 -->
<!-- 301 -->
<g id="node11" class="node">
<title>301</title>
<ellipse fill="none" stroke="black" cx="1277" cy="-594" rx="27" ry="18"/>
<text text-anchor="middle" x="1277" y="-589.8" font-family="Times,serif" font-size="14.00">301</text>
</g>
<!-- 301&#45;&gt;316 -->
<g id="edge150" class="edge">
<title>301-&gt;316</title>
<path fill="none" stroke="black" d="M1291.28,-609.64C1312.68,-630.49 1355.34,-667.98 1400,-684 1552.21,-738.6 2066.12,-738.53 2209.55,-737.4"/>
<polygon fill="black" stroke="black" points="2209.64,-740.9 2219.61,-737.32 2209.58,-733.9 2209.64,-740.9"/>
</g>
<!-- 301&#45;&gt;317 -->
<g id="edge151" class="edge">
<title>301-&gt;317</title>
<path fill="none" stroke="black" d="M1282.21,-611.96C1289.37,-632.32 1304.27,-665.98 1329,-684 1389.85,-728.34 1480.84,-736.73 1531.51,-737.67"/>
<polygon fill="black" stroke="black" points="1531.65,-741.17 1541.68,-737.77 1531.71,-734.17 1531.65,-741.17"/>
</g>
<!-- 301&#45;&gt;311 -->
<g id="edge152" class="edge">
<title>301-&gt;311</title>
<path fill="none" stroke="black" d="M1299.11,-604.73C1326.52,-616.8 1373.42,-637.45 1404.57,-651.16"/>
<polygon fill="black" stroke="black" points="1403.52,-654.52 1414.08,-655.35 1406.34,-648.12 1403.52,-654.52"/>
</g>
<!-- 301&#45;&gt;312 -->
<g id="edge153" class="edge">
<title>301-&gt;312</title>
<path fill="none" stroke="black" d="M1303.8,-596.64C1455.45,-605.95 2205.37,-651.96 2381.1,-662.74"/>
<polygon fill="black" stroke="black" points="2380.95,-666.23 2391.15,-663.35 2381.38,-659.25 2380.95,-666.23"/>
</g>
<!-- 301&#45;&gt;313 -->
<g id="edge154" class="edge">
<title>301-&gt;313</title>
<path fill="none" stroke="black" d="M1302.38,-600.39C1340.01,-608.73 1412.59,-626.09 1472,-648 1473.85,-648.68 1475.73,-649.42 1477.62,-650.2"/>
<polygon fill="black" stroke="black" points="1476.38,-653.48 1486.94,-654.3 1479.2,-647.07 1476.38,-653.48"/>
</g>
<!-- 301&#45;&gt;314 -->
<g id="edge155" class="edge">
<title>301-&gt;314</title>
<path fill="none" stroke="black" d="M1255.67,-605.1C1249.44,-607.7 1242.55,-610.25 1236,-612 1101.17,-647.96 934.72,-659.85 861.96,-663.51"/>
<polygon fill="black" stroke="black" points="861.74,-660.01 851.92,-663.99 862.07,-667.01 861.74,-660.01"/>
</g>
<!-- 301&#45;&gt;315 -->
<g id="edge156" class="edge">
<title>301-&gt;315</title>
<path fill="none" stroke="black" d="M1250.81,-599.39C1228.14,-603.1 1194.47,-608.36 1165,-612 998.39,-632.6 950.87,-603.49 789,-648 787.05,-648.54 785.08,-649.17 783.11,-649.88"/>
<polygon fill="black" stroke="black" points="781.38,-646.8 773.47,-653.85 784.05,-653.27 781.38,-646.8"/>
</g>
<!-- 305 -->
<g id="node12" class="node">
<title>305</title>
<ellipse fill="none" stroke="black" cx="1129" cy="-594" rx="27" ry="18"/>
<text text-anchor="middle" x="1129" y="-589.8" font-family="Times,serif" font-size="14.00">305</text>
</g>
<!-- 305&#45;&gt;316 -->
<g id="edge157" class="edge">
<title>305-&gt;316</title>
<path fill="none" stroke="black" d="M1148.83,-606.45C1184.51,-626.38 1262.47,-666.97 1334,-684 1504.63,-724.63 2060.82,-734.61 2209.93,-736.58"/>
<polygon fill="black" stroke="black" points="2209.91,-740.08 2219.95,-736.7 2210,-733.08 2209.91,-740.08"/>
</g>
<!-- 305&#45;&gt;317 -->
<g id="edge158" class="edge">
<title>305-&gt;317</title>
<path fill="none" stroke="black" d="M1131.82,-612.21C1136.16,-632.82 1146.59,-666.73 1170,-684 1227.01,-726.06 1444.01,-734.74 1531.8,-736.53"/>
<polygon fill="black" stroke="black" points="1531.78,-740.03 1541.85,-736.72 1531.91,-733.03 1531.78,-740.03"/>
</g>
<!-- 305&#45;&gt;311 -->
<g id="edge159" class="edge">
<title>305-&gt;311</title>
<path fill="none" stroke="black" d="M1154.12,-600.73C1208.66,-613.16 1338,-642.65 1400.7,-656.95"/>
<polygon fill="black" stroke="black" points="1400,-660.38 1410.53,-659.19 1401.56,-653.56 1400,-660.38"/>
</g>
<!-- 305&#45;&gt;314 -->
<g id="edge160" class="edge">
<title>305-&gt;314</title>
<path fill="none" stroke="black" d="M1107.16,-604.98C1101.05,-607.51 1094.34,-610.07 1088,-612 1008.6,-636.21 912.28,-652.4 861.09,-660"/>
<polygon fill="black" stroke="black" points="860.56,-656.54 851.17,-661.45 861.57,-663.47 860.56,-656.54"/>
</g>
<!-- 2014 -->
<g id="node13" class="node">
<title>2014</title>
<text text-anchor="middle" x="27" y="-517.8" font-family="Times,serif" font-size="14.00">2014</text>
</g>
<!-- 2014&#45;&gt;2013 -->
<!-- 287 -->
<g id="node14" class="node">
<title>287</title>
<ellipse fill="none" stroke="black" cx="1991" cy="-522" rx="27" ry="18"/>
<text text-anchor="middle" x="1991" y="-517.8" font-family="Times,serif" font-size="14.00">287</text>
</g>
<!-- 287&#45;&gt;316 -->
<g id="edge139" class="edge">
<title>287-&gt;316</title>
<path fill="none" stroke="black" d="M2001.3,-538.66C2014.11,-557.43 2037.32,-589.2 2062,-612 2111.61,-657.83 2179.39,-699.18 2217.62,-720.92"/>
<polygon fill="black" stroke="black" points="2216.24,-724.16 2226.68,-726.01 2219.68,-718.06 2216.24,-724.16"/>
</g>
<!-- 287&#45;&gt;317 -->
<g id="edge140" class="edge">
<title>287-&gt;317</title>
<path fill="none" stroke="black" d="M1966.53,-529.74C1952.21,-533.4 1933.71,-537.65 1917,-540 1842.51,-550.46 1292.75,-521.42 1241,-576 1202.88,-616.2 1279.49,-674.84 1294,-684 1333.23,-708.78 1466.84,-726.07 1532.28,-733.27"/>
<polygon fill="black" stroke="black" points="1532.23,-736.78 1542.55,-734.37 1532.98,-729.82 1532.23,-736.78"/>
</g>
<!-- 288 -->
<g id="node15" class="node">
<title>288</title>
<ellipse fill="none" stroke="black" cx="2363" cy="-522" rx="27" ry="18"/>
<text text-anchor="middle" x="2363" y="-517.8" font-family="Times,serif" font-size="14.00">288</text>
</g>
<!-- 288&#45;&gt;316 -->
<g id="edge141" class="edge">
<title>288-&gt;316</title>
<path fill="none" stroke="black" d="M2354.95,-539.69C2340.6,-569.19 2309.35,-632.32 2280,-684 2274.68,-693.37 2268.51,-703.46 2262.96,-712.3"/>
<polygon fill="black" stroke="black" points="2259.86,-710.65 2257.45,-720.97 2265.77,-714.4 2259.86,-710.65"/>
</g>
<!-- 288&#45;&gt;317 -->
<g id="edge142" class="edge">
<title>288-&gt;317</title>
<path fill="none" stroke="black" d="M2348.91,-537.88C2339.29,-548.27 2326.45,-562.62 2316,-576 2280.18,-621.86 2292.37,-654.87 2242,-684 2186.81,-715.92 1739.17,-731.87 1606.15,-735.94"/>
<polygon fill="black" stroke="black" points="1605.94,-732.44 1596.05,-736.24 1606.15,-739.44 1605.94,-732.44"/>
</g>
<!-- 289 -->
<g id="node16" class="node">
<title>289</title>
<ellipse fill="none" stroke="black" cx="2253" cy="-522" rx="27" ry="18"/>
<text text-anchor="middle" x="2253" y="-517.8" font-family="Times,serif" font-size="14.00">289</text>
</g>
<!-- 289&#45;&gt;317 -->
<g id="edge143" class="edge">
<title>289-&gt;317</title>
<path fill="none" stroke="black" d="M2241.47,-538.52C2212.06,-578.03 2135.99,-679.61 2128,-684 2037.88,-733.53 1716.64,-737.42 1606.43,-737.25"/>
<polygon fill="black" stroke="black" points="1606.15,-733.75 1596.14,-737.23 1606.13,-740.75 1606.15,-733.75"/>
</g>
<!-- 289&#45;&gt;312 -->
<g id="edge144" class="edge">
<title>289-&gt;312</title>
<path fill="none" stroke="black" d="M2276.64,-531.32C2298.88,-539.99 2332.24,-555.21 2356,-576 2376.7,-594.12 2393.97,-620.54 2404.98,-639.89"/>
<polygon fill="black" stroke="black" points="2401.97,-641.69 2409.87,-648.75 2408.1,-638.31 2401.97,-641.69"/>
</g>
<!-- 289&#45;&gt;314 -->
<g id="edge145" class="edge">
<title>289-&gt;314</title>
<path fill="none" stroke="black" d="M2226.23,-525.27C2183.94,-528.8 2099.07,-535.64 2027,-540 1852.47,-550.56 1410.67,-533.75 1241,-576 1204.73,-585.03 1200.72,-601.01 1165,-612 1058.13,-644.88 925.78,-658.01 862.34,-662.7"/>
<polygon fill="black" stroke="black" points="861.77,-659.23 852.04,-663.43 862.26,-666.21 861.77,-659.23"/>
</g>
<!-- 290 -->
<g id="node17" class="node">
<title>290</title>
<ellipse fill="none" stroke="black" cx="2663" cy="-522" rx="27" ry="18"/>
<text text-anchor="middle" x="2663" y="-517.8" font-family="Times,serif" font-size="14.00">290</text>
</g>
<!-- 293 -->
<g id="node18" class="node">
<title>293</title>
<ellipse fill="none" stroke="black" cx="1881" cy="-522" rx="27" ry="18"/>
<text text-anchor="middle" x="1881" y="-517.8" font-family="Times,serif" font-size="14.00">293</text>
</g>
<!-- 293&#45;&gt;312 -->
<g id="edge146" class="edge">
<title>293-&gt;312</title>
<path fill="none" stroke="black" d="M1903.69,-532.12C1948.06,-549.67 2049.71,-588.49 2138,-612 2224.28,-634.97 2328.06,-651.9 2381.79,-659.88"/>
<polygon fill="black" stroke="black" points="2381.45,-663.37 2391.85,-661.36 2382.47,-656.44 2381.45,-663.37"/>
</g>
<!-- 293&#45;&gt;305 -->
<g id="edge147" class="edge">
<title>293-&gt;305</title>
<path fill="none" stroke="black" d="M1853.78,-523.87C1740.19,-527.69 1303.66,-544.18 1170,-576 1166.6,-576.81 1163.11,-577.87 1159.68,-579.06"/>
<polygon fill="black" stroke="black" points="1158.35,-575.82 1150.27,-582.67 1160.86,-582.35 1158.35,-575.82"/>
</g>
<!-- 296 -->
<g id="node19" class="node">
<title>296</title>
<ellipse fill="none" stroke="black" cx="1239" cy="-522" rx="27" ry="18"/>
<text text-anchor="middle" x="1239" y="-517.8" font-family="Times,serif" font-size="14.00">296</text>
</g>
<!-- 296&#45;&gt;301 -->
<g id="edge148" class="edge">
<title>296-&gt;301</title>
<path fill="none" stroke="black" d="M1247.81,-539.24C1252.42,-547.72 1258.16,-558.29 1263.32,-567.8"/>
<polygon fill="black" stroke="black" points="1260.39,-569.73 1268.23,-576.85 1266.54,-566.39 1260.39,-569.73"/>
</g>
<!-- 296&#45;&gt;305 -->
<g id="edge149" class="edge">
<title>296-&gt;305</title>
<path fill="none" stroke="black" d="M1219.84,-535.19C1202.33,-546.33 1176.24,-562.94 1156.51,-575.5"/>
<polygon fill="black" stroke="black" points="1154.5,-572.63 1147.94,-580.95 1158.26,-578.53 1154.5,-572.63"/>
</g>
<!-- 2015 -->
<g id="node20" class="node">
<title>2015</title>
<text text-anchor="middle" x="27" y="-445.8" font-family="Times,serif" font-size="14.00">2015</text>
</g>
<!-- 2015&#45;&gt;2014 -->
<!-- 270 -->
<g id="node21" class="node">
<title>270</title>
<ellipse fill="none" stroke="black" cx="2375" cy="-450" rx="27" ry="18"/>
<text text-anchor="middle" x="2375" y="-445.8" font-family="Times,serif" font-size="14.00">270</text>
</g>
<!-- 270&#45;&gt;316 -->
<g id="edge112" class="edge">
<title>270-&gt;316</title>
<path fill="none" stroke="black" d="M2401.32,-454.73C2429.03,-460.21 2471.31,-473.36 2491,-504 2495.8,-511.47 2498.05,-578.93 2490,-612 2481.54,-646.76 2481.84,-661.53 2454,-684 2404.69,-723.79 2329.03,-734.08 2284.13,-736.52"/>
<polygon fill="black" stroke="black" points="2283.79,-733.03 2273.96,-736.96 2284.1,-740.02 2283.79,-733.03"/>
</g>
<!-- 270&#45;&gt;312 -->
<g id="edge113" class="edge">
<title>270-&gt;312</title>
<path fill="none" stroke="black" d="M2399.9,-457.18C2422.66,-464.29 2454.99,-478.43 2470,-504 2494.31,-545.39 2488.16,-567.57 2470,-612 2464.61,-625.18 2454.19,-636.86 2444.09,-645.87"/>
<polygon fill="black" stroke="black" points="2441.58,-643.41 2436.15,-652.51 2446.07,-648.78 2441.58,-643.41"/>
</g>
<!-- 270&#45;&gt;315 -->
<g id="edge114" class="edge">
<title>270-&gt;315</title>
<path fill="none" stroke="black" d="M2348.19,-452.89C2299.68,-456.27 2194.12,-463.42 2105,-468 1904.66,-478.3 1400.1,-466.64 1203,-504 1039.1,-535.06 855.1,-616.63 783.65,-650.22"/>
<polygon fill="black" stroke="black" points="781.87,-647.19 774.33,-654.63 784.87,-653.52 781.87,-647.19"/>
</g>
<!-- 270&#45;&gt;289 -->
<g id="edge115" class="edge">
<title>270-&gt;289</title>
<path fill="none" stroke="black" d="M2355.13,-462.4C2335.19,-473.84 2304.27,-491.58 2281.68,-504.54"/>
<polygon fill="black" stroke="black" points="2279.8,-501.59 2272.86,-509.6 2283.28,-507.66 2279.8,-501.59"/>
</g>
<!-- 271 -->
<g id="node22" class="node">
<title>271</title>
<ellipse fill="none" stroke="black" cx="2729" cy="-450" rx="27" ry="18"/>
<text text-anchor="middle" x="2729" y="-445.8" font-family="Times,serif" font-size="14.00">271</text>
</g>
<!-- 271&#45;&gt;316 -->
<g id="edge116" class="edge">
<title>271-&gt;316</title>
<path fill="none" stroke="black" d="M2744.21,-465.15C2753.63,-475.01 2764.89,-489.03 2770,-504 2795.86,-579.7 2823.64,-624.65 2770,-684 2737.47,-719.99 2398.23,-732.76 2284.17,-736.05"/>
<polygon fill="black" stroke="black" points="2284.06,-732.55 2274.17,-736.33 2284.26,-739.55 2284.06,-732.55"/>
</g>
<!-- 271&#45;&gt;317 -->
<g id="edge117" class="edge">
<title>271-&gt;317</title>
<path fill="none" stroke="black" d="M2730.52,-468.16C2731.48,-486.66 2731.01,-516.61 2721,-540 2704.28,-579.09 2693.2,-588.14 2658,-612 2578.41,-665.94 2548.24,-664.94 2454,-684 2287.87,-717.6 1752.57,-732.61 1606.26,-736.15"/>
<polygon fill="black" stroke="black" points="1605.93,-732.66 1596.02,-736.4 1606.1,-739.66 1605.93,-732.66"/>
</g>
<!-- 271&#45;&gt;312 -->
<g id="edge118" class="edge">
<title>271-&gt;312</title>
<path fill="none" stroke="black" d="M2726.02,-467.9C2722.12,-486.71 2713.94,-517.43 2699,-540 2672.42,-580.17 2660.43,-589.21 2618,-612 2565.05,-640.44 2495.88,-654.34 2454.31,-660.56"/>
<polygon fill="black" stroke="black" points="2453.77,-657.11 2444.36,-661.98 2454.76,-664.04 2453.77,-657.11"/>
</g>
<!-- 273 -->
<g id="node23" class="node">
<title>273</title>
<ellipse fill="none" stroke="black" cx="1615" cy="-450" rx="27" ry="18"/>
<text text-anchor="middle" x="1615" y="-445.8" font-family="Times,serif" font-size="14.00">273</text>
</g>
<!-- 273&#45;&gt;316 -->
<g id="edge119" class="edge">
<title>273-&gt;316</title>
<path fill="none" stroke="black" d="M1641.37,-453.9C1729.57,-463.65 2009.69,-495.18 2027,-504 2123.87,-553.33 2201.04,-663.11 2232.14,-712.31"/>
<polygon fill="black" stroke="black" points="2229.32,-714.4 2237.57,-721.04 2235.26,-710.7 2229.32,-714.4"/>
</g>
<!-- 273&#45;&gt;317 -->
<g id="edge120" class="edge">
<title>273-&gt;317</title>
<path fill="none" stroke="black" d="M1623.81,-467.14C1644.12,-506.73 1689.59,-610.78 1650,-684 1639.82,-702.83 1619.71,-716.05 1602.07,-724.57"/>
<polygon fill="black" stroke="black" points="1600.29,-721.54 1592.61,-728.83 1603.17,-727.92 1600.29,-721.54"/>
</g>
<!-- 273&#45;&gt;311 -->
<g id="edge121" class="edge">
<title>273-&gt;311</title>
<path fill="none" stroke="black" d="M1605.16,-467.02C1586.32,-497.08 1543.02,-563.28 1498,-612 1486.86,-624.05 1473.11,-636.05 1461.38,-645.58"/>
<polygon fill="black" stroke="black" points="1458.91,-643.07 1453.27,-652.04 1463.27,-648.55 1458.91,-643.07"/>
</g>
<!-- 273&#45;&gt;312 -->
<g id="edge122" class="edge">
<title>273-&gt;312</title>
<path fill="none" stroke="black" d="M1641.43,-453.93C1672.11,-457.32 1724.21,-463.08 1769,-468 1915.21,-484.07 1956.95,-462.28 2098,-504 2213.57,-538.18 2337.54,-612.87 2390.97,-647.15"/>
<polygon fill="black" stroke="black" points="2389.22,-650.19 2399.52,-652.68 2393.02,-644.31 2389.22,-650.19"/>
</g>
<!-- 273&#45;&gt;314 -->
<g id="edge123" class="edge">
<title>273-&gt;314</title>
<path fill="none" stroke="black" d="M1588.14,-452.58C1504.22,-457.79 1247.86,-475.66 1170,-504 1166.57,-505.25 1062.99,-573.9 1060,-576 1038.17,-591.31 1035.9,-600.17 1012,-612 962.52,-636.5 899.9,-651.33 861.15,-658.85"/>
<polygon fill="black" stroke="black" points="860.07,-655.49 850.89,-660.78 861.36,-662.37 860.07,-655.49"/>
</g>
<!-- 273&#45;&gt;305 -->
<g id="edge124" class="edge">
<title>273-&gt;305</title>
<path fill="none" stroke="black" d="M1589.58,-457.01C1521.04,-473.46 1326.96,-521.63 1170,-576 1166.87,-577.08 1163.63,-578.28 1160.42,-579.53"/>
<polygon fill="black" stroke="black" points="1158.92,-576.36 1150.94,-583.34 1161.53,-582.86 1158.92,-576.36"/>
</g>
<!-- 277 -->
<g id="node24" class="node">
<title>277</title>
<ellipse fill="none" stroke="black" cx="1356" cy="-450" rx="27" ry="18"/>
<text text-anchor="middle" x="1356" y="-445.8" font-family="Times,serif" font-size="14.00">277</text>
</g>
<!-- 277&#45;&gt;317 -->
<g id="edge125" class="edge">
<title>277-&gt;317</title>
<path fill="none" stroke="black" d="M1373.16,-464.01C1410.1,-492.93 1497.54,-566.46 1544,-648 1554.96,-667.23 1561.37,-691.58 1564.95,-709.94"/>
<polygon fill="black" stroke="black" points="1561.53,-710.75 1566.74,-719.98 1568.43,-709.52 1561.53,-710.75"/>
</g>
<!-- 277&#45;&gt;311 -->
<g id="edge126" class="edge">
<title>277-&gt;311</title>
<path fill="none" stroke="black" d="M1362.28,-467.79C1376.15,-504.91 1409.51,-594.14 1426.18,-638.73"/>
<polygon fill="black" stroke="black" points="1422.97,-640.14 1429.75,-648.29 1429.53,-637.69 1422.97,-640.14"/>
</g>
<!-- 277&#45;&gt;314 -->
<g id="edge127" class="edge">
<title>277-&gt;314</title>
<path fill="none" stroke="black" d="M1329.54,-454.23C1286.66,-460.13 1199.92,-474.81 1132,-504 1078.32,-527.07 1069.84,-542.45 1022,-576 1000.17,-591.31 997.5,-599.39 974,-612 936.83,-631.95 890.61,-647.04 859.59,-655.92"/>
<polygon fill="black" stroke="black" points="858.38,-652.63 849.69,-658.69 860.26,-659.37 858.38,-652.63"/>
</g>
<!-- 279 -->
<g id="node25" class="node">
<title>279</title>
<ellipse fill="none" stroke="black" cx="2069" cy="-450" rx="27" ry="18"/>
<text text-anchor="middle" x="2069" y="-445.8" font-family="Times,serif" font-size="14.00">279</text>
</g>
<!-- 279&#45;&gt;312 -->
<g id="edge128" class="edge">
<title>279-&gt;312</title>
<path fill="none" stroke="black" d="M2095.81,-452.92C2176.02,-458.92 2409.95,-478.5 2432,-504 2464.4,-541.48 2445.45,-603.85 2430.56,-638.94"/>
<polygon fill="black" stroke="black" points="2427.19,-637.93 2426.33,-648.49 2433.58,-640.77 2427.19,-637.93"/>
</g>
<!-- 279&#45;&gt;287 -->
<g id="edge129" class="edge">
<title>279-&gt;287</title>
<path fill="none" stroke="black" d="M2053.59,-464.83C2042.27,-474.99 2026.69,-488.97 2013.91,-500.44"/>
<polygon fill="black" stroke="black" points="2011.48,-497.91 2006.38,-507.2 2016.16,-503.12 2011.48,-497.91"/>
</g>
<!-- 283 -->
<g id="node26" class="node">
<title>283</title>
<ellipse fill="none" stroke="black" cx="1805" cy="-450" rx="27" ry="18"/>
<text text-anchor="middle" x="1805" y="-445.8" font-family="Times,serif" font-size="14.00">283</text>
</g>
<!-- 283&#45;&gt;316 -->
<g id="edge130" class="edge">
<title>283-&gt;316</title>
<path fill="none" stroke="black" d="M1807.97,-467.99C1816.61,-511.94 1846.15,-629.77 1922,-684 1967.65,-716.64 2134.46,-730.39 2209.72,-735.02"/>
<polygon fill="black" stroke="black" points="2209.94,-738.54 2220.13,-735.64 2210.36,-731.56 2209.94,-738.54"/>
</g>
<!-- 283&#45;&gt;313 -->
<g id="edge131" class="edge">
<title>283-&gt;313</title>
<path fill="none" stroke="black" d="M1790.4,-465.17C1759.36,-494.84 1683.75,-564.66 1612,-612 1588.82,-627.29 1560.67,-641.4 1539.5,-651.21"/>
<polygon fill="black" stroke="black" points="1537.95,-648.06 1530.3,-655.4 1540.86,-654.43 1537.95,-648.06"/>
</g>
<!-- 283&#45;&gt;314 -->
<g id="edge132" class="edge">
<title>283-&gt;314</title>
<path fill="none" stroke="black" d="M1778.59,-454.16C1747.94,-457.77 1695.85,-463.72 1651,-468 1551.57,-477.48 1296.23,-468.17 1203,-504 1178.44,-513.44 1177.92,-525.44 1156,-540 1129.14,-557.85 1119.47,-557.58 1093,-576 1072.54,-590.24 1072.29,-600.84 1050,-612 988.24,-642.92 907.84,-656.22 861.76,-661.62"/>
<polygon fill="black" stroke="black" points="861.2,-658.16 851.65,-662.74 861.97,-665.11 861.2,-658.16"/>
</g>
<!-- 283&#45;&gt;288 -->
<g id="edge133" class="edge">
<title>283-&gt;288</title>
<path fill="none" stroke="black" d="M1831.68,-453.51C1919.57,-461.83 2199.51,-488.87 2289,-504 2301.9,-506.18 2315.91,-509.22 2328.24,-512.13"/>
<polygon fill="black" stroke="black" points="2327.6,-515.58 2338.14,-514.53 2329.24,-508.78 2327.6,-515.58"/>
</g>
<!-- 283&#45;&gt;293 -->
<g id="edge134" class="edge">
<title>283-&gt;293</title>
<path fill="none" stroke="black" d="M1820.38,-465.17C1831.2,-475.13 1845.86,-488.63 1858.05,-499.86"/>
<polygon fill="black" stroke="black" points="1855.92,-502.66 1865.64,-506.86 1860.66,-497.51 1855.92,-502.66"/>
</g>
<!-- 285 -->
<g id="node27" class="node">
<title>285</title>
<ellipse fill="none" stroke="black" cx="842" cy="-450" rx="27" ry="18"/>
<text text-anchor="middle" x="842" y="-445.8" font-family="Times,serif" font-size="14.00">285</text>
</g>
<!-- 285&#45;&gt;317 -->
<g id="edge135" class="edge">
<title>285-&gt;317</title>
<path fill="none" stroke="black" d="M824.95,-464.06C777.39,-501.97 650.98,-613.75 717,-684 745.27,-714.09 1370.12,-731.96 1531.33,-736.08"/>
<polygon fill="black" stroke="black" points="1531.61,-739.59 1541.69,-736.34 1531.78,-732.59 1531.61,-739.59"/>
</g>
<!-- 285&#45;&gt;312 -->
<g id="edge136" class="edge">
<title>285-&gt;312</title>
<path fill="none" stroke="black" d="M868.83,-452.04C1042.22,-458.74 1998.12,-496.04 2027,-504 2059.59,-512.98 2063.48,-525.46 2094,-540 2168.81,-575.65 2188.62,-582.34 2266,-612 2306.33,-627.45 2353.35,-643.56 2384.3,-653.91"/>
<polygon fill="black" stroke="black" points="2383.55,-657.34 2394.14,-657.18 2385.76,-650.7 2383.55,-657.34"/>
</g>
<!-- 285&#45;&gt;314 -->
<g id="edge137" class="edge">
<title>285-&gt;314</title>
<path fill="none" stroke="black" d="M840.63,-467.98C838.7,-492.03 835.06,-537.37 832,-576 830.36,-596.73 828.51,-620.17 827.13,-637.79"/>
<polygon fill="black" stroke="black" points="823.63,-637.69 826.34,-647.94 830.61,-638.24 823.63,-637.69"/>
</g>
<!-- 285&#45;&gt;305 -->
<g id="edge138" class="edge">
<title>285-&gt;305</title>
<path fill="none" stroke="black" d="M863.1,-461.44C913.38,-486.32 1040.38,-549.15 1098.78,-578.05"/>
<polygon fill="black" stroke="black" points="1097.35,-581.25 1107.87,-582.54 1100.45,-574.97 1097.35,-581.25"/>
</g>
<!-- 2016 -->
<g id="node28" class="node">
<title>2016</title>
<text text-anchor="middle" x="27" y="-373.8" font-family="Times,serif" font-size="14.00">2016</text>
</g>
<!-- 2016&#45;&gt;2015 -->
<!-- 256 -->
<g id="node29" class="node">
<title>256</title>
<ellipse fill="none" stroke="black" cx="1653" cy="-378" rx="27" ry="18"/>
<text text-anchor="middle" x="1653" y="-373.8" font-family="Times,serif" font-size="14.00">256</text>
</g>
<!-- 256&#45;&gt;316 -->
<g id="edge102" class="edge">
<title>256-&gt;316</title>
<path fill="none" stroke="black" d="M1680.11,-379.44C1846.14,-382.23 2720.19,-398.49 2765,-432 2855.33,-499.55 2879.48,-609.27 2795,-684 2756.82,-717.78 2401.7,-732.07 2284.4,-735.89"/>
<polygon fill="black" stroke="black" points="2284.01,-732.4 2274.13,-736.22 2284.23,-739.4 2284.01,-732.4"/>
</g>
<!-- 256&#45;&gt;317 -->
<g id="edge103" class="edge">
<title>256-&gt;317</title>
<path fill="none" stroke="black" d="M1664.38,-394.72C1681.52,-420.01 1712,-471.88 1712,-521 1712,-521 1712,-521 1712,-595 1712,-638.74 1700.27,-652.42 1670,-684 1651.34,-703.46 1623.96,-717.21 1602.42,-725.83"/>
<polygon fill="black" stroke="black" points="1601.08,-722.59 1592.98,-729.42 1603.57,-729.13 1601.08,-722.59"/>
</g>
<!-- 256&#45;&gt;311 -->
<g id="edge104" class="edge">
<title>256-&gt;311</title>
<path fill="none" stroke="black" d="M1655.93,-396.05C1658.35,-414.47 1660.09,-444.34 1651,-468 1620.72,-546.84 1591.94,-558 1527,-612 1508.56,-627.33 1485.14,-640.86 1466.67,-650.41"/>
<polygon fill="black" stroke="black" points="1464.87,-647.4 1457.52,-655.04 1468.02,-653.65 1464.87,-647.4"/>
</g>
<!-- 256&#45;&gt;314 -->
<g id="edge105" class="edge">
<title>256-&gt;314</title>
<path fill="none" stroke="black" d="M1625.87,-379.82C1539.21,-383.45 1263.2,-402.76 1065,-504 1019.07,-527.46 1012.98,-542.23 974,-576 956.42,-591.23 955.18,-598.83 936,-612 911.36,-628.93 880.47,-643.19 857.54,-652.64"/>
<polygon fill="black" stroke="black" points="856.21,-649.41 848.24,-656.39 858.82,-655.9 856.21,-649.41"/>
</g>
<!-- 257 -->
<g id="node30" class="node">
<title>257</title>
<ellipse fill="none" stroke="black" cx="310" cy="-378" rx="27" ry="18"/>
<text text-anchor="middle" x="310" y="-373.8" font-family="Times,serif" font-size="14.00">257</text>
</g>
<!-- 257&#45;&gt;316 -->
<g id="edge106" class="edge">
<title>257-&gt;316</title>
<path fill="none" stroke="black" d="M336.32,-382.18C369.86,-386.1 429.65,-392.66 481,-396 610.79,-404.44 1532.83,-377.68 1651,-432 1788.78,-495.33 1747.02,-612.98 1881,-684 1937.67,-714.04 2128.79,-729.47 2210,-734.8"/>
<polygon fill="black" stroke="black" points="2210.05,-738.31 2220.25,-735.46 2210.49,-731.32 2210.05,-738.31"/>
</g>
<!-- 257&#45;&gt;317 -->
<g id="edge107" class="edge">
<title>257-&gt;317</title>
<path fill="none" stroke="black" d="M303.82,-395.87C293.46,-427.34 276.55,-495.8 307,-540 393.41,-665.43 470.22,-647.11 618,-684 795.63,-728.35 1377.5,-735.63 1531.39,-736.79"/>
<polygon fill="black" stroke="black" points="1531.69,-740.29 1541.72,-736.86 1531.74,-733.29 1531.69,-740.29"/>
</g>
<!-- 257&#45;&gt;314 -->
<g id="edge108" class="edge">
<title>257-&gt;314</title>
<path fill="none" stroke="black" d="M308.01,-396.08C303.82,-441.32 299.79,-564.11 372,-612 449.51,-663.41 699.2,-623.76 789,-648 790.95,-648.53 792.93,-649.16 794.9,-649.86"/>
<polygon fill="black" stroke="black" points="793.96,-653.25 804.54,-653.81 796.62,-646.78 793.96,-653.25"/>
</g>
<!-- 258 -->
<g id="node31" class="node">
<title>258</title>
<ellipse fill="none" stroke="black" cx="517" cy="-378" rx="27" ry="18"/>
<text text-anchor="middle" x="517" y="-373.8" font-family="Times,serif" font-size="14.00">258</text>
</g>
<!-- 258&#45;&gt;317 -->
<g id="edge109" class="edge">
<title>258-&gt;317</title>
<path fill="none" stroke="black" d="M513.74,-396C508.72,-427.09 502.34,-494.13 530,-540 580.26,-623.36 604.94,-647.08 695,-684 773.2,-716.06 1375.11,-732.41 1531.8,-736.16"/>
<polygon fill="black" stroke="black" points="1531.81,-739.66 1541.89,-736.39 1531.97,-732.66 1531.81,-739.66"/>
</g>
<!-- 258&#45;&gt;313 -->
<g id="edge110" class="edge">
<title>258-&gt;313</title>
<path fill="none" stroke="black" d="M539.79,-387.93C588.03,-406.4 704.39,-448.7 806,-468 1011.39,-507.01 1077.95,-434.16 1275,-504 1362.18,-534.9 1447.05,-607.33 1485.93,-643.56"/>
<polygon fill="black" stroke="black" points="1483.84,-646.4 1493.51,-650.72 1488.64,-641.31 1483.84,-646.4"/>
</g>
<!-- 258&#45;&gt;314 -->
<g id="edge111" class="edge">
<title>258-&gt;314</title>
<path fill="none" stroke="black" d="M516.32,-396.1C516.05,-414.29 516.97,-443.73 524,-468 544.14,-537.51 541.81,-568.97 600,-612 668.76,-662.84 707.69,-621.53 789,-648 790.92,-648.63 792.88,-649.33 794.83,-650.09"/>
<polygon fill="black" stroke="black" points="793.85,-653.48 804.42,-654.19 796.61,-647.04 793.85,-653.48"/>
</g>
<!-- 2017 -->
<g id="node32" class="node">
<title>2017</title>
<text text-anchor="middle" x="27" y="-301.8" font-family="Times,serif" font-size="14.00">2017</text>
</g>
<!-- 2017&#45;&gt;2016 -->
<!-- 232 -->
<g id="node33" class="node">
<title>232</title>
<ellipse fill="none" stroke="black" cx="1995" cy="-306" rx="27" ry="18"/>
<text text-anchor="middle" x="1995" y="-301.8" font-family="Times,serif" font-size="14.00">232</text>
</g>
<!-- 234 -->
<g id="node34" class="node">
<title>234</title>
<ellipse fill="none" stroke="black" cx="507" cy="-306" rx="27" ry="18"/>
<text text-anchor="middle" x="507" y="-301.8" font-family="Times,serif" font-size="14.00">234</text>
</g>
<!-- 234&#45;&gt;314 -->
<g id="edge85" class="edge">
<title>234-&gt;314</title>
<path fill="none" stroke="black" d="M496.76,-322.98C490.88,-333.14 484.06,-346.82 481,-360 477.38,-375.59 478.39,-380.21 481,-396 497.64,-496.55 478.58,-548.13 558,-612 638.97,-677.11 689.67,-617.5 789,-648 790.93,-648.59 792.89,-649.27 794.85,-650.01"/>
<polygon fill="black" stroke="black" points="793.89,-653.4 804.46,-654.07 796.61,-646.96 793.89,-653.4"/>
</g>
<!-- 234&#45;&gt;258 -->
<g id="edge86" class="edge">
<title>234-&gt;258</title>
<path fill="none" stroke="black" d="M509.42,-323.95C510.52,-331.65 511.85,-340.97 513.09,-349.64"/>
<polygon fill="black" stroke="black" points="509.65,-350.32 514.53,-359.72 516.58,-349.33 509.65,-350.32"/>
</g>
<!-- 237 -->
<g id="node35" class="node">
<title>237</title>
<ellipse fill="none" stroke="black" cx="300" cy="-306" rx="27" ry="18"/>
<text text-anchor="middle" x="300" y="-301.8" font-family="Times,serif" font-size="14.00">237</text>
</g>
<!-- 237&#45;&gt;317 -->
<g id="edge87" class="edge">
<title>237-&gt;317</title>
<path fill="none" stroke="black" d="M277.81,-316.64C237.88,-335.66 158,-382.06 158,-449 158,-449 158,-449 158,-595 158,-737.24 1307.77,-738.39 1531.52,-737.27"/>
<polygon fill="black" stroke="black" points="1531.78,-740.77 1541.76,-737.21 1531.74,-733.77 1531.78,-740.77"/>
</g>
<!-- 237&#45;&gt;314 -->
<g id="edge88" class="edge">
<title>237-&gt;314</title>
<path fill="none" stroke="black" d="M315.4,-320.87C325.54,-330.82 338.3,-345.05 346,-360 398.9,-462.73 321.9,-537.23 410,-612 474.5,-666.74 707.42,-625.6 789,-648 790.95,-648.54 792.92,-649.17 794.89,-649.87"/>
<polygon fill="black" stroke="black" points="793.95,-653.27 804.53,-653.84 796.62,-646.8 793.95,-653.27"/>
</g>
<!-- 241 -->
<g id="node36" class="node">
<title>241</title>
<ellipse fill="none" stroke="black" cx="2240" cy="-306" rx="27" ry="18"/>
<text text-anchor="middle" x="2240" y="-301.8" font-family="Times,serif" font-size="14.00">241</text>
</g>
<!-- 241&#45;&gt;316 -->
<g id="edge89" class="edge">
<title>241-&gt;316</title>
<path fill="none" stroke="black" d="M2267.25,-306.56C2352.83,-306.44 2620.98,-315.91 2797,-432 2867.51,-478.51 2876.48,-529.58 2858,-612 2850.26,-646.53 2852.99,-663.71 2824,-684 2779.8,-714.93 2404.49,-731.24 2284.05,-735.71"/>
<polygon fill="black" stroke="black" points="2283.72,-732.22 2273.85,-736.09 2283.97,-739.22 2283.72,-732.22"/>
</g>
<!-- 241&#45;&gt;317 -->
<g id="edge90" class="edge">
<title>241-&gt;317</title>
<path fill="none" stroke="black" d="M2235.64,-324.1C2230.54,-342.56 2221.08,-372.46 2208,-396 2164.33,-474.56 2142.02,-492.04 2066,-540 1906.62,-640.55 1687.44,-705.52 1603.56,-728.1"/>
<polygon fill="black" stroke="black" points="1602.54,-724.75 1593.78,-730.71 1604.35,-731.51 1602.54,-724.75"/>
</g>
<!-- 241&#45;&gt;312 -->
<g id="edge91" class="edge">
<title>241-&gt;312</title>
<path fill="none" stroke="black" d="M2259.5,-318.89C2314.33,-352.81 2467.39,-450.99 2491,-504 2497.09,-517.68 2500.63,-591.34 2490,-612 2485.06,-621.61 2464.2,-636.44 2446.19,-647.97"/>
<polygon fill="black" stroke="black" points="2444.27,-645.05 2437.67,-653.33 2448,-650.97 2444.27,-645.05"/>
</g>
<!-- 241&#45;&gt;313 -->
<g id="edge92" class="edge">
<title>241-&gt;313</title>
<path fill="none" stroke="black" d="M2230.76,-323.15C2204.94,-366.61 2127.3,-486.39 2027,-540 1861.47,-628.48 1633.04,-655.2 1544.82,-662.5"/>
<polygon fill="black" stroke="black" points="1544.46,-659.02 1534.77,-663.29 1545.01,-665.99 1544.46,-659.02"/>
</g>
<!-- 241&#45;&gt;314 -->
<g id="edge93" class="edge">
<title>241-&gt;314</title>
<path fill="none" stroke="black" d="M2213.12,-309.18C2101.4,-318.26 1676.83,-352.92 1617,-360 1405.39,-385.04 1345.24,-364.9 1143,-432 1078.46,-453.41 1063.9,-465.28 1008,-504 999.43,-509.94 895.58,-602.17 848.24,-644.29"/>
<polygon fill="black" stroke="black" points="845.77,-641.81 840.63,-651.08 850.42,-647.04 845.77,-641.81"/>
</g>
<!-- 244 -->
<g id="node37" class="node">
<title>244</title>
<ellipse fill="none" stroke="black" cx="1653" cy="-306" rx="27" ry="18"/>
<text text-anchor="middle" x="1653" y="-301.8" font-family="Times,serif" font-size="14.00">244</text>
</g>
<!-- 244&#45;&gt;314 -->
<g id="edge94" class="edge">
<title>244-&gt;314</title>
<path fill="none" stroke="black" d="M1625.86,-306.64C1547.67,-306.26 1315.73,-309.77 1132,-360 1113.59,-365.03 990.41,-419.48 976,-432 904.16,-494.42 912,-532.29 860,-612 853.85,-621.42 847.05,-631.75 841.09,-640.76"/>
<polygon fill="black" stroke="black" points="838.06,-638.99 835.46,-649.26 843.9,-642.86 838.06,-638.99"/>
</g>
<!-- 244&#45;&gt;289 -->
<g id="edge95" class="edge">
<title>244-&gt;289</title>
<path fill="none" stroke="black" d="M1672.77,-318.65C1723.62,-348.13 1863.8,-426.26 1990,-468 2069.11,-494.17 2092.38,-487.23 2174,-504 2188.35,-506.95 2204.13,-510.32 2217.79,-513.28"/>
<polygon fill="black" stroke="black" points="2217.25,-516.74 2227.76,-515.44 2218.74,-509.9 2217.25,-516.74"/>
</g>
<!-- 244&#45;&gt;296 -->
<g id="edge96" class="edge">
<title>244-&gt;296</title>
<path fill="none" stroke="black" d="M1635.44,-319.79C1594.5,-349.16 1488.82,-422.41 1392,-468 1346.99,-489.19 1332.95,-487.54 1286,-504 1281.43,-505.6 1276.62,-507.31 1271.89,-509.01"/>
<polygon fill="black" stroke="black" points="1270.62,-505.75 1262.4,-512.44 1272.99,-512.33 1270.62,-505.75"/>
</g>
<!-- 244&#45;&gt;270 -->
<g id="edge97" class="edge">
<title>244-&gt;270</title>
<path fill="none" stroke="black" d="M1678.7,-312.05C1787.79,-333.51 2212.79,-417.1 2339.29,-441.98"/>
<polygon fill="black" stroke="black" points="2338.75,-445.44 2349.24,-443.93 2340.1,-438.57 2338.75,-445.44"/>
</g>
<!-- 244&#45;&gt;271 -->
<g id="edge98" class="edge">
<title>244-&gt;271</title>
<path fill="none" stroke="black" d="M1679.33,-310.47C1824.31,-329.61 2524.84,-422.06 2692.77,-444.22"/>
<polygon fill="black" stroke="black" points="2692.45,-447.71 2702.83,-445.55 2693.37,-440.77 2692.45,-447.71"/>
</g>
<!-- 244&#45;&gt;273 -->
<g id="edge99" class="edge">
<title>244-&gt;273</title>
<path fill="none" stroke="black" d="M1639.36,-321.97C1631.19,-331.95 1621.54,-345.8 1617,-360 1610.61,-379.96 1610.43,-403.75 1611.67,-421.71"/>
<polygon fill="black" stroke="black" points="1608.2,-422.14 1612.56,-431.8 1615.17,-421.53 1608.2,-422.14"/>
</g>
<!-- 244&#45;&gt;283 -->
<g id="edge100" class="edge">
<title>244-&gt;283</title>
<path fill="none" stroke="black" d="M1664.95,-322.4C1679.68,-340.9 1705.98,-372.41 1732,-396 1746.22,-408.89 1763.56,-421.59 1777.77,-431.32"/>
<polygon fill="black" stroke="black" points="1775.91,-434.29 1786.15,-436.97 1779.82,-428.48 1775.91,-434.29"/>
</g>
<!-- 244&#45;&gt;256 -->
<g id="edge101" class="edge">
<title>244-&gt;256</title>
<path fill="none" stroke="black" d="M1653,-324.3C1653,-332.02 1653,-341.29 1653,-349.89"/>
<polygon fill="black" stroke="black" points="1649.5,-349.9 1653,-359.9 1656.5,-349.9 1649.5,-349.9"/>
</g>
<!-- 250 -->
<g id="node38" class="node">
<title>250</title>
<ellipse fill="none" stroke="black" cx="2963" cy="-306" rx="27" ry="18"/>
<text text-anchor="middle" x="2963" y="-301.8" font-family="Times,serif" font-size="14.00">250</text>
</g>
<!-- 2018 -->
<g id="node39" class="node">
<title>2018</title>
<text text-anchor="middle" x="27" y="-229.8" font-family="Times,serif" font-size="14.00">2018</text>
</g>
<!-- 2018&#45;&gt;2017 -->
<!-- 194 -->
<g id="node40" class="node">
<title>194</title>
<ellipse fill="none" stroke="black" cx="732" cy="-234" rx="27" ry="18"/>
<text text-anchor="middle" x="732" y="-229.8" font-family="Times,serif" font-size="14.00">194</text>
</g>
<!-- 194&#45;&gt;311 -->
<g id="edge46" class="edge">
<title>194-&gt;311</title>
<path fill="none" stroke="black" d="M753.48,-245C848.53,-289.35 1228.7,-467.67 1275,-504 1299.69,-523.37 1343.24,-590.39 1366,-612 1379.33,-624.65 1395.64,-637.15 1409.15,-646.82"/>
<polygon fill="black" stroke="black" points="1407.38,-649.86 1417.57,-652.75 1411.41,-644.13 1407.38,-649.86"/>
</g>
<!-- 194&#45;&gt;312 -->
<g id="edge47" class="edge">
<title>194-&gt;312</title>
<path fill="none" stroke="black" d="M757.7,-239.72C780.34,-243.68 814.24,-249.14 844,-252 1038.38,-270.68 1534.48,-233.5 1722,-288 1875.36,-332.57 1880.97,-419.07 2033,-468 2110.8,-493.04 2340.65,-446.78 2399,-504 2434.33,-538.65 2430.09,-601.64 2423.97,-637.71"/>
<polygon fill="black" stroke="black" points="2420.45,-637.5 2422.06,-647.97 2427.33,-638.78 2420.45,-637.5"/>
</g>
<!-- 194&#45;&gt;314 -->
<g id="edge48" class="edge">
<title>194-&gt;314</title>
<path fill="none" stroke="black" d="M711.15,-245.55C684.92,-259 642.73,-281.31 638,-288 572.58,-380.46 572.77,-430.06 600,-540 608.7,-575.12 609.41,-589.83 638,-612 692.52,-654.28 723.9,-625.15 789,-648 790.91,-648.67 792.85,-649.41 794.79,-650.19"/>
<polygon fill="black" stroke="black" points="793.8,-653.58 804.37,-654.36 796.6,-647.16 793.8,-653.58"/>
</g>
<!-- 194&#45;&gt;315 -->
<g id="edge49" class="edge">
<title>194-&gt;315</title>
<path fill="none" stroke="black" d="M711.46,-245.92C706.5,-248.21 701.15,-250.41 696,-252 599.25,-281.92 569.01,-262.5 471,-288 448.45,-293.87 287.35,-340.9 274,-360 264.83,-373.11 272.2,-380.1 274,-396 285.2,-495 255.84,-550.21 334,-612 348.97,-623.83 616.64,-651.47 716.15,-661.38"/>
<polygon fill="black" stroke="black" points="716.04,-664.89 726.33,-662.39 716.73,-657.92 716.04,-664.89"/>
</g>
<!-- 197 -->
<g id="node41" class="node">
<title>197</title>
<ellipse fill="none" stroke="black" cx="431" cy="-234" rx="27" ry="18"/>
<text text-anchor="middle" x="431" y="-229.8" font-family="Times,serif" font-size="14.00">197</text>
</g>
<!-- 197&#45;&gt;317 -->
<g id="edge50" class="edge">
<title>197-&gt;317</title>
<path fill="none" stroke="black" d="M404.33,-237.16C340.95,-242.73 183.41,-259.14 140,-288 100.68,-314.14 82,-329.79 82,-377 82,-377 82,-377 82,-595 82,-641.97 98.22,-660.7 139,-684 201.21,-719.55 1312.82,-734.07 1531.74,-736.59"/>
<polygon fill="black" stroke="black" points="1531.73,-740.09 1541.77,-736.71 1531.81,-733.09 1531.73,-740.09"/>
</g>
<!-- 197&#45;&gt;234 -->
<g id="edge51" class="edge">
<title>197-&gt;234</title>
<path fill="none" stroke="black" d="M446.38,-249.17C457.2,-259.13 471.86,-272.63 484.05,-283.86"/>
<polygon fill="black" stroke="black" points="481.92,-286.66 491.64,-290.86 486.66,-281.51 481.92,-286.66"/>
</g>
<!-- 198 -->
<g id="node42" class="node">
<title>198</title>
<ellipse fill="none" stroke="black" cx="880" cy="-234" rx="27" ry="18"/>
<text text-anchor="middle" x="880" y="-229.8" font-family="Times,serif" font-size="14.00">198</text>
</g>
<!-- 198&#45;&gt;311 -->
<g id="edge52" class="edge">
<title>198-&gt;311</title>
<path fill="none" stroke="black" d="M901.3,-245.11C966.83,-276.87 1169.37,-379.91 1308,-504 1332.92,-526.31 1389.91,-602.18 1418.69,-641.28"/>
<polygon fill="black" stroke="black" points="1415.97,-643.49 1424.71,-649.48 1421.62,-639.35 1415.97,-643.49"/>
</g>
<!-- 198&#45;&gt;314 -->
<g id="edge53" class="edge">
<title>198-&gt;314</title>
<path fill="none" stroke="black" d="M857.24,-243.76C814.84,-261.75 728,-307.12 728,-377 728,-377 728,-377 728,-523 728,-563.97 728.76,-578.26 752,-612 762.81,-627.7 779.85,-640.46 794.75,-649.51"/>
<polygon fill="black" stroke="black" points="793.26,-652.7 803.67,-654.67 796.76,-646.64 793.26,-652.7"/>
</g>
<!-- 198&#45;&gt;279 -->
<g id="edge54" class="edge">
<title>198-&gt;279</title>
<path fill="none" stroke="black" d="M907.05,-236.17C1064.37,-243.02 1855.15,-277.88 1878,-288 1885.79,-291.45 1980.36,-390.66 1987,-396 2003.67,-409.41 2023.84,-422.48 2040,-432.29"/>
<polygon fill="black" stroke="black" points="2038.62,-435.54 2049,-437.66 2042.21,-429.53 2038.62,-435.54"/>
</g>
<!-- 198&#45;&gt;285 -->
<g id="edge55" class="edge">
<title>198-&gt;285</title>
<path fill="none" stroke="black" d="M874.98,-252.07C872.07,-262.4 868.5,-275.88 866,-288 856.37,-334.75 849,-389.9 845.1,-422.01"/>
<polygon fill="black" stroke="black" points="841.62,-421.63 843.91,-431.97 848.57,-422.46 841.62,-421.63"/>
</g>
<!-- 204 -->
<g id="node43" class="node">
<title>204</title>
<ellipse fill="none" stroke="black" cx="1356" cy="-234" rx="27" ry="18"/>
<text text-anchor="middle" x="1356" y="-229.8" font-family="Times,serif" font-size="14.00">204</text>
</g>
<!-- 204&#45;&gt;313 -->
<g id="edge56" class="edge">
<title>204-&gt;313</title>
<path fill="none" stroke="black" d="M1371.01,-249.19C1409.06,-286.44 1508.24,-391.91 1536,-504 1547.63,-550.97 1531.34,-606.81 1519.17,-638.86"/>
<polygon fill="black" stroke="black" points="1515.82,-637.8 1515.4,-648.38 1522.33,-640.37 1515.82,-637.8"/>
</g>
<!-- 204&#45;&gt;314 -->
<g id="edge57" class="edge">
<title>204-&gt;314</title>
<path fill="none" stroke="black" d="M1328.9,-236.04C1246.09,-239.56 997.68,-252.88 926,-288 835.41,-332.39 766,-348.12 766,-449 766,-449 766,-449 766,-523 766,-567.13 790.6,-613.48 808.03,-640.78"/>
<polygon fill="black" stroke="black" points="805.2,-642.85 813.62,-649.28 811.05,-639 805.2,-642.85"/>
</g>
<!-- 204&#45;&gt;277 -->
<g id="edge58" class="edge">
<title>204-&gt;277</title>
<path fill="none" stroke="black" d="M1356,-252.15C1356,-289.17 1356,-376.82 1356,-421.61"/>
<polygon fill="black" stroke="black" points="1352.5,-421.77 1356,-431.77 1359.5,-421.77 1352.5,-421.77"/>
</g>
<!-- 204&#45;&gt;279 -->
<g id="edge59" class="edge">
<title>204-&gt;279</title>
<path fill="none" stroke="black" d="M1382.88,-236.44C1487.98,-242.2 1867.64,-264.48 1916,-288 1932.78,-296.16 2011.63,-383.99 2049.11,-426.37"/>
<polygon fill="black" stroke="black" points="2046.57,-428.79 2055.81,-433.97 2051.82,-424.15 2046.57,-428.79"/>
</g>
<!-- 204&#45;&gt;232 -->
<g id="edge60" class="edge">
<title>204-&gt;232</title>
<path fill="none" stroke="black" d="M1382.92,-236.3C1484.33,-241.35 1843.16,-260.79 1954,-288 1957.4,-288.83 1960.88,-289.91 1964.3,-291.11"/>
<polygon fill="black" stroke="black" points="1963.12,-294.4 1973.71,-294.73 1965.64,-287.87 1963.12,-294.4"/>
</g>
<!-- 204&#45;&gt;234 -->
<g id="edge61" class="edge">
<title>204-&gt;234</title>
<path fill="none" stroke="black" d="M1329.19,-237.21C1205.17,-247.44 687.13,-290.15 543.86,-301.96"/>
<polygon fill="black" stroke="black" points="543.5,-298.48 533.82,-302.79 544.07,-305.46 543.5,-298.48"/>
</g>
<!-- 205 -->
<g id="node44" class="node">
<title>205</title>
<ellipse fill="none" stroke="black" cx="660" cy="-234" rx="27" ry="18"/>
<text text-anchor="middle" x="660" y="-229.8" font-family="Times,serif" font-size="14.00">205</text>
</g>
<!-- 205&#45;&gt;316 -->
<g id="edge62" class="edge">
<title>205-&gt;316</title>
<path fill="none" stroke="black" d="M680.03,-246.2C685.1,-248.54 690.63,-250.69 696,-252 803.28,-278.11 1588.76,-241.72 1689,-288 1708.71,-297.1 1706.61,-308.69 1722,-324 1772.63,-374.38 1788.49,-383.58 1841,-432 1883.53,-471.22 1936,-463.14 1936,-521 1936,-521 1936,-521 1936,-595 1936,-714.13 2127.16,-733.74 2209.74,-736.66"/>
<polygon fill="black" stroke="black" points="2209.85,-740.17 2219.94,-736.95 2210.05,-733.17 2209.85,-740.17"/>
</g>
<!-- 205&#45;&gt;317 -->
<g id="edge63" class="edge">
<title>205-&gt;317</title>
<path fill="none" stroke="black" d="M633.16,-237.12C555.65,-243.48 332.66,-263.45 264,-288 193.15,-313.33 120,-301.76 120,-377 120,-377 120,-377 120,-595 120,-657.54 170.51,-661.84 229,-684 353.66,-731.23 1327.77,-736.37 1531.66,-736.93"/>
<polygon fill="black" stroke="black" points="1531.85,-740.43 1541.85,-736.96 1531.86,-733.43 1531.85,-740.43"/>
</g>
<!-- 205&#45;&gt;194 -->
<g id="edge64" class="edge">
<title>205-&gt;194</title>
<path fill="none" stroke="black" d="M687,-234C689.61,-234 692.23,-234 694.84,-234"/>
<polygon fill="black" stroke="black" points="694.93,-237.5 704.93,-234 694.93,-230.5 694.93,-237.5"/>
</g>
<!-- 206 -->
<g id="node45" class="node">
<title>206</title>
<ellipse fill="none" stroke="black" cx="1874" cy="-234" rx="27" ry="18"/>
<text text-anchor="middle" x="1874" y="-229.8" font-family="Times,serif" font-size="14.00">206</text>
</g>
<!-- 209 -->
<g id="node46" class="node">
<title>209</title>
<ellipse fill="none" stroke="black" cx="1730" cy="-234" rx="27" ry="18"/>
<text text-anchor="middle" x="1730" y="-229.8" font-family="Times,serif" font-size="14.00">209</text>
</g>
<!-- 209&#45;&gt;293 -->
<g id="edge65" class="edge">
<title>209-&gt;293</title>
<path fill="none" stroke="black" d="M1739.2,-251.23C1745.14,-261.72 1753.04,-275.66 1760,-288 1796.09,-351.95 1807.92,-366.45 1841,-432 1851.56,-452.93 1862.39,-477.23 1870.12,-495.15"/>
<polygon fill="black" stroke="black" points="1866.91,-496.57 1874.06,-504.39 1873.35,-493.82 1866.91,-496.57"/>
</g>
<!-- 209&#45;&gt;279 -->
<g id="edge66" class="edge">
<title>209-&gt;279</title>
<path fill="none" stroke="black" d="M1750.51,-246.01C1755.47,-248.29 1760.83,-250.47 1766,-252 1822.98,-268.89 1986.99,-248.06 2031,-288 2068.39,-321.93 2072.35,-385.19 2071.16,-421.5"/>
<polygon fill="black" stroke="black" points="2067.64,-421.67 2070.65,-431.83 2074.63,-422.01 2067.64,-421.67"/>
</g>
<!-- 209&#45;&gt;285 -->
<g id="edge67" class="edge">
<title>209-&gt;285</title>
<path fill="none" stroke="black" d="M1702.87,-236.33C1572.24,-242.81 1012.94,-271.42 980,-288 920.38,-318.01 875.99,-386.26 855.17,-423.54"/>
<polygon fill="black" stroke="black" points="851.86,-422.29 850.15,-432.74 858.01,-425.64 851.86,-422.29"/>
</g>
<!-- 210 -->
<g id="node47" class="node">
<title>210</title>
<ellipse fill="none" stroke="black" cx="1802" cy="-234" rx="27" ry="18"/>
<text text-anchor="middle" x="1802" y="-229.8" font-family="Times,serif" font-size="14.00">210</text>
</g>
<!-- 210&#45;&gt;279 -->
<g id="edge68" class="edge">
<title>210-&gt;279</title>
<path fill="none" stroke="black" d="M1822.54,-245.92C1827.49,-248.21 1832.85,-250.41 1838,-252 1886.59,-267.01 2030.39,-249.83 2064,-288 2096.41,-324.81 2086.76,-386.73 2077.47,-422.09"/>
<polygon fill="black" stroke="black" points="2073.98,-421.58 2074.65,-432.16 2080.72,-423.48 2073.98,-421.58"/>
</g>
<!-- 214 -->
<g id="node49" class="node">
<title>214</title>
<ellipse fill="none" stroke="black" cx="1946" cy="-234" rx="27" ry="18"/>
<text text-anchor="middle" x="1946" y="-229.8" font-family="Times,serif" font-size="14.00">214</text>
</g>
<!-- 210&#45;&gt;214 -->
<g id="edge69" class="edge">
<title>210-&gt;214</title>
<path fill="none" stroke="black" d="M1816.22,-218.43C1824.37,-210.68 1835.29,-202.11 1847,-198 1869.65,-190.06 1878.35,-190.06 1901,-198 1909.23,-200.89 1917.08,-205.98 1923.84,-211.45"/>
<polygon fill="black" stroke="black" points="1921.96,-214.46 1931.78,-218.43 1926.58,-209.2 1921.96,-214.46"/>
</g>
<!-- 212 -->
<g id="node48" class="node">
<title>212</title>
<ellipse fill="none" stroke="black" cx="2392" cy="-234" rx="27" ry="18"/>
<text text-anchor="middle" x="2392" y="-229.8" font-family="Times,serif" font-size="14.00">212</text>
</g>
<!-- 212&#45;&gt;317 -->
<g id="edge70" class="edge">
<title>212-&gt;317</title>
<path fill="none" stroke="black" d="M2399.67,-251.38C2417.45,-291.96 2456.58,-398.88 2411,-468 2388.64,-501.91 2360.34,-480.8 2327,-504 2281.71,-535.51 2205.67,-659.98 2156,-684 2058.4,-731.21 1720.15,-736.58 1606.55,-737.03"/>
<polygon fill="black" stroke="black" points="1606.26,-733.53 1596.27,-737.06 1606.28,-740.53 1606.26,-733.53"/>
</g>
<!-- 212&#45;&gt;311 -->
<g id="edge71" class="edge">
<title>212-&gt;311</title>
<path fill="none" stroke="black" d="M2364.84,-236.23C2231.44,-242.36 1650.67,-269.99 1617,-288 1483.95,-359.17 1447.63,-563.26 1438.68,-637.54"/>
<polygon fill="black" stroke="black" points="1435.15,-637.59 1437.51,-647.92 1442.11,-638.37 1435.15,-637.59"/>
</g>
<!-- 212&#45;&gt;312 -->
<g id="edge72" class="edge">
<title>212-&gt;312</title>
<path fill="none" stroke="black" d="M2418.38,-238.46C2507.81,-250.93 2794,-297.06 2794,-377 2794,-377 2794,-377 2794,-451 2794,-544.67 2738.6,-564.27 2658,-612 2593.69,-650.08 2505.04,-660.86 2455.45,-663.88"/>
<polygon fill="black" stroke="black" points="2454.99,-660.39 2445.19,-664.42 2455.37,-667.38 2454.99,-660.39"/>
</g>
<!-- 212&#45;&gt;288 -->
<g id="edge73" class="edge">
<title>212-&gt;288</title>
<path fill="none" stroke="black" d="M2410.15,-247.49C2422.26,-257.01 2437.17,-271.29 2444,-288 2474.26,-362.06 2482.05,-397.63 2444,-468 2433.82,-486.83 2413.71,-500.05 2396.07,-508.57"/>
<polygon fill="black" stroke="black" points="2394.29,-505.54 2386.61,-512.83 2397.17,-511.92 2394.29,-505.54"/>
</g>
<!-- 212&#45;&gt;289 -->
<g id="edge74" class="edge">
<title>212-&gt;289</title>
<path fill="none" stroke="black" d="M2383.93,-251.61C2360.65,-299.51 2293.29,-438.11 2265.36,-495.57"/>
<polygon fill="black" stroke="black" points="2262.15,-494.17 2260.92,-504.7 2268.44,-497.23 2262.15,-494.17"/>
</g>
<!-- 212&#45;&gt;279 -->
<g id="edge75" class="edge">
<title>212-&gt;279</title>
<path fill="none" stroke="black" d="M2365.17,-237.23C2326.55,-241.55 2254.4,-253.87 2204,-288 2153.87,-321.94 2160.72,-350.31 2121,-396 2111.66,-406.75 2100.7,-418.09 2091.25,-427.51"/>
<polygon fill="black" stroke="black" points="2088.72,-425.09 2084.06,-434.61 2093.64,-430.07 2088.72,-425.09"/>
</g>
<!-- 212&#45;&gt;241 -->
<g id="edge76" class="edge">
<title>212-&gt;241</title>
<path fill="none" stroke="black" d="M2370.22,-245.03C2344.26,-256.98 2300.69,-277.05 2271.17,-290.65"/>
<polygon fill="black" stroke="black" points="2269.36,-287.63 2261.74,-294.99 2272.28,-293.99 2269.36,-287.63"/>
</g>
<!-- 214&#45;&gt;312 -->
<g id="edge77" class="edge">
<title>214-&gt;312</title>
<path fill="none" stroke="black" d="M1973.4,-234.79C2031.67,-235.31 2171.16,-241.73 2276,-288 2299.51,-298.38 2439.43,-413.25 2457,-432 2513.77,-492.59 2548.03,-539.82 2507,-612 2503.59,-618 2472.31,-635.84 2447.78,-649.17"/>
<polygon fill="black" stroke="black" points="2445.92,-646.2 2438.79,-654.03 2449.25,-652.36 2445.92,-646.2"/>
</g>
<!-- 214&#45;&gt;314 -->
<g id="edge78" class="edge">
<title>214-&gt;314</title>
<path fill="none" stroke="black" d="M1925.94,-246.08C1920.87,-248.42 1915.35,-250.6 1910,-252 1688,-309.98 1622.31,-256.75 1395,-288 1238.1,-309.57 1192.27,-299.26 1046,-360 929,-408.59 910.91,-459.99 860,-576 850.81,-596.94 841.38,-621.11 834.62,-638.97"/>
<polygon fill="black" stroke="black" points="831.31,-637.85 831.07,-648.44 837.86,-640.31 831.31,-637.85"/>
</g>
<!-- 214&#45;&gt;305 -->
<g id="edge79" class="edge">
<title>214-&gt;305</title>
<path fill="none" stroke="black" d="M1925.54,-246.21C1920.58,-248.48 1915.21,-250.61 1910,-252 1720.46,-302.71 1652.15,-215.05 1470,-288 1318.55,-348.65 1190.61,-508.32 1145.95,-569.07"/>
<polygon fill="black" stroke="black" points="1143.02,-567.15 1139.97,-577.29 1148.68,-571.26 1143.02,-567.15"/>
</g>
<!-- 214&#45;&gt;290 -->
<g id="edge80" class="edge">
<title>214-&gt;290</title>
<path fill="none" stroke="black" d="M1973.01,-234.85C2037.04,-235.32 2202.31,-241.36 2330,-288 2462.74,-336.49 2591.61,-451.72 2641.41,-499.59"/>
<polygon fill="black" stroke="black" points="2639.1,-502.22 2648.71,-506.67 2643.97,-497.19 2639.1,-502.22"/>
</g>
<!-- 214&#45;&gt;279 -->
<g id="edge81" class="edge">
<title>214-&gt;279</title>
<path fill="none" stroke="black" d="M1972.98,-235.27C2009.23,-237.26 2072.52,-246.84 2102,-288 2129.95,-327.02 2115.19,-349.85 2102,-396 2099.01,-406.47 2093.28,-416.89 2087.42,-425.68"/>
<polygon fill="black" stroke="black" points="2084.54,-423.69 2081.62,-433.88 2090.26,-427.74 2084.54,-423.69"/>
</g>
<!-- 214&#45;&gt;285 -->
<g id="edge82" class="edge">
<title>214-&gt;285</title>
<path fill="none" stroke="black" d="M1925.96,-246.19C1920.9,-248.53 1915.37,-250.68 1910,-252 1717.34,-299.3 1201.44,-212.46 1018,-288 1008.57,-291.88 909.33,-385.22 864.17,-427.97"/>
<polygon fill="black" stroke="black" points="861.75,-425.44 856.9,-434.85 866.57,-430.52 861.75,-425.44"/>
</g>
<!-- 214&#45;&gt;241 -->
<g id="edge83" class="edge">
<title>214-&gt;241</title>
<path fill="none" stroke="black" d="M1971.07,-240.97C2023.57,-253.47 2145.21,-282.43 2205.22,-296.72"/>
<polygon fill="black" stroke="black" points="2204.46,-300.14 2215,-299.05 2206.08,-293.33 2204.46,-300.14"/>
</g>
<!-- 214&#45;&gt;197 -->
<g id="edge84" class="edge">
<title>214-&gt;197</title>
<path fill="none" stroke="black" d="M1931.78,-218.43C1923.63,-210.68 1912.71,-202.11 1901,-198 1834.53,-174.68 703.17,-191.8 633,-198 574.08,-203.21 506.61,-216.81 466.47,-225.72"/>
<polygon fill="black" stroke="black" points="465.62,-222.32 456.63,-227.93 467.16,-229.15 465.62,-222.32"/>
</g>
<!-- 2019 -->
<g id="node50" class="node">
<title>2019</title>
<text text-anchor="middle" x="27" y="-157.8" font-family="Times,serif" font-size="14.00">2019</text>
</g>
<!-- 2019&#45;&gt;2018 -->
<!-- 162 -->
<g id="node51" class="node">
<title>162</title>
<ellipse fill="none" stroke="black" cx="731" cy="-162" rx="27" ry="18"/>
<text text-anchor="middle" x="731" y="-157.8" font-family="Times,serif" font-size="14.00">162</text>
</g>
<!-- 162&#45;&gt;205 -->
<g id="edge43" class="edge">
<title>162-&gt;205</title>
<path fill="none" stroke="black" d="M716.29,-177.5C706.39,-187.27 693.16,-200.31 682.01,-211.3"/>
<polygon fill="black" stroke="black" points="679.36,-209 674.69,-218.51 684.27,-213.99 679.36,-209"/>
</g>
<!-- 175 -->
<g id="node52" class="node">
<title>175</title>
<ellipse fill="none" stroke="black" cx="2963" cy="-162" rx="27" ry="18"/>
<text text-anchor="middle" x="2963" y="-157.8" font-family="Times,serif" font-size="14.00">175</text>
</g>
<!-- 175&#45;&gt;250 -->
<g id="edge44" class="edge">
<title>175-&gt;250</title>
<path fill="none" stroke="black" d="M2963,-180.13C2963,-204.33 2963,-248.79 2963,-277.61"/>
<polygon fill="black" stroke="black" points="2959.5,-277.81 2963,-287.81 2966.5,-277.81 2959.5,-277.81"/>
</g>
<!-- 192 -->
<g id="node53" class="node">
<title>192</title>
<ellipse fill="none" stroke="black" cx="2891" cy="-162" rx="27" ry="18"/>
<text text-anchor="middle" x="2891" y="-157.8" font-family="Times,serif" font-size="14.00">192</text>
</g>
<!-- 192&#45;&gt;206 -->
<g id="edge45" class="edge">
<title>192-&gt;206</title>
<path fill="none" stroke="black" d="M2863.77,-163.06C2725.23,-163.57 2097.89,-168.51 1910,-216 1907.82,-216.55 1905.62,-217.24 1903.43,-218.01"/>
<polygon fill="black" stroke="black" points="1901.97,-214.83 1894.05,-221.86 1904.63,-221.3 1901.97,-214.83"/>
</g>
<!-- 2020 -->
<g id="node54" class="node">
<title>2020</title>
<text text-anchor="middle" x="27" y="-85.8" font-family="Times,serif" font-size="14.00">2020</text>
</g>
<!-- 2020&#45;&gt;2019 -->
<!-- 121 -->
<g id="node55" class="node">
<title>121</title>
<ellipse fill="none" stroke="black" cx="2674" cy="-90" rx="27" ry="18"/>
<text text-anchor="middle" x="2674" y="-85.8" font-family="Times,serif" font-size="14.00">121</text>
</g>
<!-- 121&#45;&gt;316 -->
<g id="edge34" class="edge">
<title>121-&gt;316</title>
<path fill="none" stroke="black" d="M2694.07,-102.29C2697.97,-104.31 2702.07,-106.3 2706,-108 2751.67,-127.74 2772.84,-113.31 2812,-144 2886.71,-202.57 2867.36,-250.14 2927,-324 2969.84,-377.06 3001.72,-373.05 3036,-432 3056.59,-467.42 3060,-480.03 3060,-521 3060,-521 3060,-521 3060,-595 3060,-635.97 3067.67,-658.01 3036,-684 2977.44,-732.06 2433.31,-736.65 2284.48,-737"/>
<polygon fill="black" stroke="black" points="2284.05,-733.5 2274.06,-737.01 2284.06,-740.5 2284.05,-733.5"/>
</g>
<!-- 121&#45;&gt;317 -->
<g id="edge35" class="edge">
<title>121-&gt;317</title>
<path fill="none" stroke="black" d="M2685.36,-106.61C2713.4,-146.36 2785.1,-255.65 2805,-360 2815.12,-413.07 2806.63,-509.13 2789,-540 2762.55,-586.31 2738.77,-584.62 2693,-612 2627.82,-651 2611.69,-665.59 2538,-684 2446.43,-706.87 1772.74,-730.31 1606.17,-735.8"/>
<polygon fill="black" stroke="black" points="1605.82,-732.31 1595.94,-736.14 1606.05,-739.31 1605.82,-732.31"/>
</g>
<!-- 121&#45;&gt;290 -->
<g id="edge36" class="edge">
<title>121-&gt;290</title>
<path fill="none" stroke="black" d="M2673.01,-108.04C2671.56,-134.69 2669,-187.86 2669,-233 2669,-233 2669,-233 2669,-379 2669,-419.04 2666.59,-465.37 2664.82,-493.93"/>
<polygon fill="black" stroke="black" points="2661.33,-493.76 2664.19,-503.96 2668.31,-494.2 2661.33,-493.76"/>
</g>
<!-- 121&#45;&gt;277 -->
<g id="edge37" class="edge">
<title>121-&gt;277</title>
<path fill="none" stroke="black" d="M2646.91,-91.36C2463.9,-94.09 1412.91,-114.12 1320,-216 1266.72,-274.43 1314.36,-377.36 1340.94,-424.36"/>
<polygon fill="black" stroke="black" points="1338.05,-426.35 1346.09,-433.24 1344.1,-422.83 1338.05,-426.35"/>
</g>
<!-- 121&#45;&gt;162 -->
<g id="edge38" class="edge">
<title>121-&gt;162</title>
<path fill="none" stroke="black" d="M2647.01,-91.64C2491.2,-95.4 1690.98,-115.35 1038,-144 940.6,-148.27 825.93,-155.1 768.19,-158.66"/>
<polygon fill="black" stroke="black" points="767.86,-155.18 758.09,-159.29 768.29,-162.17 767.86,-155.18"/>
</g>
<!-- 122 -->
<g id="node56" class="node">
<title>122</title>
<ellipse fill="none" stroke="black" cx="196" cy="-90" rx="27" ry="18"/>
<text text-anchor="middle" x="196" y="-85.8" font-family="Times,serif" font-size="14.00">122</text>
</g>
<!-- 122&#45;&gt;314 -->
<g id="edge39" class="edge">
<title>122-&gt;314</title>
<path fill="none" stroke="black" d="M196,-108.05C196,-134.71 196,-187.89 196,-233 196,-233 196,-233 196,-379 196,-499.36 231.87,-548.32 334,-612 420.07,-665.66 690.98,-621.92 789,-648 791.17,-648.58 793.37,-649.28 795.56,-650.07"/>
<polygon fill="black" stroke="black" points="794.35,-653.36 804.93,-653.96 797.03,-646.9 794.35,-653.36"/>
</g>
<!-- 135 -->
<g id="node57" class="node">
<title>135</title>
<ellipse fill="none" stroke="black" cx="2891" cy="-90" rx="27" ry="18"/>
<text text-anchor="middle" x="2891" y="-85.8" font-family="Times,serif" font-size="14.00">135</text>
</g>
<!-- 135&#45;&gt;175 -->
<g id="edge40" class="edge">
<title>135-&gt;175</title>
<path fill="none" stroke="black" d="M2905.57,-105.17C2915.75,-115.06 2929.52,-128.45 2941.03,-139.64"/>
<polygon fill="black" stroke="black" points="2938.59,-142.15 2948.2,-146.62 2943.47,-137.13 2938.59,-142.15"/>
</g>
<!-- 135&#45;&gt;192 -->
<g id="edge41" class="edge">
<title>135-&gt;192</title>
<path fill="none" stroke="black" d="M2891,-108.3C2891,-116.02 2891,-125.29 2891,-133.89"/>
<polygon fill="black" stroke="black" points="2887.5,-133.9 2891,-143.9 2894.5,-133.9 2887.5,-133.9"/>
</g>
<!-- 142 -->
<g id="node58" class="node">
<title>142</title>
<ellipse fill="none" stroke="black" cx="2963" cy="-90" rx="27" ry="18"/>
<text text-anchor="middle" x="2963" y="-85.8" font-family="Times,serif" font-size="14.00">142</text>
</g>
<!-- 135&#45;&gt;142 -->
<g id="edge42" class="edge">
<title>135-&gt;142</title>
<path fill="none" stroke="black" d="M2918,-90C2920.61,-90 2923.23,-90 2925.84,-90"/>
<polygon fill="black" stroke="black" points="2925.93,-93.5 2935.93,-90 2925.93,-86.5 2925.93,-93.5"/>
</g>
<!-- 2021 -->
<g id="node59" class="node">
<title>2021</title>
<text text-anchor="middle" x="27" y="-13.8" font-family="Times,serif" font-size="14.00">2021</text>
</g>
<!-- 2021&#45;&gt;2020 -->
<!-- 55 -->
<g id="node60" class="node">
<title>55</title>
<ellipse fill="none" stroke="black" cx="769" cy="-18" rx="27" ry="18"/>
<text text-anchor="middle" x="769" y="-13.8" font-family="Times,serif" font-size="14.00">55</text>
</g>
<!-- 55&#45;&gt;316 -->
<g id="edge11" class="edge">
<title>55-&gt;316</title>
<path fill="none" stroke="black" d="M789.49,-30.1C794.44,-32.38 799.81,-34.53 805,-36 979.58,-85.41 2249.39,-184.07 2428,-216 2558.73,-239.37 2598.34,-230.4 2718,-288 2794.69,-324.92 3022,-435.88 3022,-521 3022,-521 3022,-521 3022,-595 3022,-680.68 2933.25,-660.02 2851,-684 2743.68,-715.29 2398.67,-731.14 2284.26,-735.63"/>
<polygon fill="black" stroke="black" points="2283.78,-732.15 2273.92,-736.03 2284.05,-739.15 2283.78,-732.15"/>
</g>
<!-- 55&#45;&gt;312 -->
<g id="edge12" class="edge">
<title>55-&gt;312</title>
<path fill="none" stroke="black" d="M789.01,-30.28C794.08,-32.62 799.61,-34.75 805,-36 864.36,-49.82 2951.93,-33.27 2999,-72 3030.23,-97.7 3018,-120.55 3018,-161 3018,-161 3018,-161 3018,-235 3018,-453.92 2899.49,-519.66 2701,-612 2678.85,-622.3 2525.54,-647.77 2454.27,-659.24"/>
<polygon fill="black" stroke="black" points="2453.29,-655.85 2443.97,-660.89 2454.4,-662.76 2453.29,-655.85"/>
</g>
<!-- 55&#45;&gt;314 -->
<g id="edge13" class="edge">
<title>55-&gt;314</title>
<path fill="none" stroke="black" d="M742.23,-21.23C684.73,-26.56 552.03,-41.87 520,-72 495.81,-94.75 507.73,-111.7 500,-144 484.81,-207.49 477.48,-223.04 471,-288 469.41,-303.92 470.67,-308 471,-324 471.67,-356.02 471.78,-364.05 474,-396 480.78,-493.74 440.6,-551.93 518,-612 613.99,-686.49 672.45,-613.65 789,-648 790.94,-648.57 792.91,-649.23 794.87,-649.96"/>
<polygon fill="black" stroke="black" points="793.91,-653.36 804.49,-653.98 796.61,-646.9 793.91,-653.36"/>
</g>
<!-- 55&#45;&gt;301 -->
<g id="edge14" class="edge">
<title>55-&gt;301</title>
<path fill="none" stroke="black" d="M743.2,-23.99C687.71,-36.39 562,-74.06 562,-161 562,-161 562,-161 562,-235 562,-314.13 581.05,-341.07 638,-396 728.12,-482.92 1120.07,-563.23 1241.2,-586.36"/>
<polygon fill="black" stroke="black" points="1240.61,-589.81 1251.09,-588.23 1241.92,-582.93 1240.61,-589.81"/>
</g>
<!-- 55&#45;&gt;283 -->
<g id="edge15" class="edge">
<title>55-&gt;283</title>
<path fill="none" stroke="black" d="M778.11,-35C798.38,-68.83 850.83,-147.21 919,-180 1014,-225.7 1287.88,-199.53 1392,-216 1526.16,-237.22 1576.3,-212.19 1689,-288 1740.08,-322.36 1776.37,-387.2 1793.63,-423.23"/>
<polygon fill="black" stroke="black" points="1790.59,-424.99 1797.99,-432.57 1796.93,-422.03 1790.59,-424.99"/>
</g>
<!-- 55&#45;&gt;234 -->
<g id="edge16" class="edge">
<title>55-&gt;234</title>
<path fill="none" stroke="black" d="M742.23,-21.77C689.38,-27.81 574.42,-43.91 548,-72 494.5,-128.88 497.85,-229.78 503.12,-277.95"/>
<polygon fill="black" stroke="black" points="499.65,-278.42 504.32,-287.93 506.6,-277.59 499.65,-278.42"/>
</g>
<!-- 55&#45;&gt;194 -->
<g id="edge17" class="edge">
<title>55-&gt;194</title>
<path fill="none" stroke="black" d="M771.85,-35.93C776.21,-65.81 782.51,-129.5 767,-180 763.75,-190.59 757.65,-201.04 751.45,-209.82"/>
<polygon fill="black" stroke="black" points="748.52,-207.89 745.31,-217.99 754.12,-212.09 748.52,-207.89"/>
</g>
<!-- 55&#45;&gt;197 -->
<g id="edge18" class="edge">
<title>55-&gt;197</title>
<path fill="none" stroke="black" d="M742.06,-20.17C676.49,-23.57 511.13,-35.62 472,-72 434.86,-106.53 429.4,-169.57 429.62,-205.67"/>
<polygon fill="black" stroke="black" points="426.12,-206.03 429.84,-215.95 433.12,-205.88 426.12,-206.03"/>
</g>
<!-- 55&#45;&gt;205 -->
<g id="edge19" class="edge">
<title>55-&gt;205</title>
<path fill="none" stroke="black" d="M743.07,-23.81C717.51,-30.07 679.78,-43.75 662,-72 636.23,-112.95 644.39,-172.13 652.39,-206.17"/>
<polygon fill="black" stroke="black" points="648.99,-207.03 654.82,-215.87 655.78,-205.32 648.99,-207.03"/>
</g>
<!-- 55&#45;&gt;206 -->
<g id="edge20" class="edge">
<title>55-&gt;206</title>
<path fill="none" stroke="black" d="M789.57,-29.83C794.52,-32.12 799.87,-34.35 805,-36 1140.52,-144.17 1237.09,-123.16 1585,-180 1697.09,-198.31 1729.21,-183.39 1838,-216 1839.94,-216.58 1841.9,-217.25 1843.86,-217.98"/>
<polygon fill="black" stroke="black" points="1842.9,-221.38 1853.48,-222.02 1845.61,-214.92 1842.9,-221.38"/>
</g>
<!-- 55&#45;&gt;210 -->
<g id="edge21" class="edge">
<title>55-&gt;210</title>
<path fill="none" stroke="black" d="M790.23,-29.22C820.37,-43.78 872.35,-69.05 876,-72 923.75,-110.54 907.34,-152.13 962,-180 1121.33,-261.24 1592.41,-172.97 1766,-216 1768.18,-216.54 1770.39,-217.22 1772.58,-217.99"/>
<polygon fill="black" stroke="black" points="1771.38,-221.28 1781.96,-221.83 1774.03,-214.8 1771.38,-221.28"/>
</g>
<!-- 55&#45;&gt;162 -->
<g id="edge22" class="edge">
<title>55-&gt;162</title>
<path fill="none" stroke="black" d="M764.49,-35.85C757.98,-60.19 745.87,-105.43 738.14,-134.33"/>
<polygon fill="black" stroke="black" points="734.71,-133.61 735.5,-144.18 741.47,-135.42 734.71,-133.61"/>
</g>
<!-- 63 -->
<g id="node62" class="node">
<title>63</title>
<ellipse fill="none" stroke="black" cx="841" cy="-18" rx="27" ry="18"/>
<text text-anchor="middle" x="841" y="-13.8" font-family="Times,serif" font-size="14.00">63</text>
</g>
<!-- 55&#45;&gt;63 -->
<g id="edge23" class="edge">
<title>55-&gt;63</title>
<path fill="none" stroke="black" d="M796,-18C798.61,-18 801.23,-18 803.84,-18"/>
<polygon fill="black" stroke="black" points="803.93,-21.5 813.93,-18 803.93,-14.5 803.93,-21.5"/>
</g>
<!-- 60 -->
<g id="node61" class="node">
<title>60</title>
<ellipse fill="none" stroke="black" cx="2891" cy="-18" rx="27" ry="18"/>
<text text-anchor="middle" x="2891" y="-13.8" font-family="Times,serif" font-size="14.00">60</text>
</g>
<!-- 60&#45;&gt;135 -->
<g id="edge24" class="edge">
<title>60-&gt;135</title>
<path fill="none" stroke="black" d="M2891,-36.3C2891,-44.02 2891,-53.29 2891,-61.89"/>
<polygon fill="black" stroke="black" points="2887.5,-61.9 2891,-71.9 2894.5,-61.9 2887.5,-61.9"/>
</g>
<!-- 63&#45;&gt;314 -->
<g id="edge25" class="edge">
<title>63-&gt;314</title>
<path fill="none" stroke="black" d="M840.49,-36.11C838.32,-78.35 826.99,-188.77 768,-252 738.05,-284.11 705.3,-255.3 676,-288 648.66,-318.51 652,-336.03 652,-377 652,-377 652,-377 652,-523 652,-563.97 647.69,-582.39 676,-612 712.42,-650.1 739.95,-628.7 789,-648 790.83,-648.72 792.7,-649.49 794.58,-650.29"/>
<polygon fill="black" stroke="black" points="793.33,-653.57 803.88,-654.46 796.19,-647.18 793.33,-653.57"/>
</g>
<!-- 63&#45;&gt;205 -->
<g id="edge26" class="edge">
<title>63-&gt;205</title>
<path fill="none" stroke="black" d="M821.8,-30.91C791.11,-50.83 730.8,-93.71 695,-144 681.51,-162.94 672.31,-187.8 666.73,-206.43"/>
<polygon fill="black" stroke="black" points="663.36,-205.48 664.01,-216.06 670.1,-207.39 663.36,-205.48"/>
</g>
<!-- 63&#45;&gt;206 -->
<g id="edge27" class="edge">
<title>63-&gt;206</title>
<path fill="none" stroke="black" d="M867.41,-21.8C984.05,-34.66 1463.87,-92.79 1838,-216 1839.92,-216.63 1841.87,-217.34 1843.82,-218.1"/>
<polygon fill="black" stroke="black" points="1842.85,-221.49 1853.42,-222.22 1845.61,-215.06 1842.85,-221.49"/>
</g>
<!-- 63&#45;&gt;121 -->
<g id="edge28" class="edge">
<title>63-&gt;121</title>
<path fill="none" stroke="black" d="M868,-19.52C1085.29,-23.74 2542.89,-52.67 2633,-72 2636.42,-72.73 2639.91,-73.74 2643.35,-74.9"/>
<polygon fill="black" stroke="black" points="2642.18,-78.2 2652.77,-78.48 2644.67,-71.66 2642.18,-78.2"/>
</g>
<!-- 81 -->
<g id="node63" class="node">
<title>81</title>
<ellipse fill="none" stroke="black" cx="1838" cy="-18" rx="27" ry="18"/>
<text text-anchor="middle" x="1838" y="-13.8" font-family="Times,serif" font-size="14.00">81</text>
</g>
<!-- 81&#45;&gt;314 -->
<g id="edge29" class="edge">
<title>81-&gt;314</title>
<path fill="none" stroke="black" d="M1811.05,-20.16C1692.11,-26.14 1204.23,-59.5 844,-216 818.88,-226.91 816.37,-236.21 794,-252 771.04,-268.21 761.1,-267.38 742,-288 710.87,-321.61 690,-331.19 690,-377 690,-377 690,-377 690,-523 690,-566.19 699.89,-580.1 729,-612 734,-617.48 768.5,-635.93 794.72,-649.53"/>
<polygon fill="black" stroke="black" points="793.44,-652.81 803.94,-654.29 796.65,-646.59 793.44,-652.81"/>
</g>
<!-- 81&#45;&gt;204 -->
<g id="edge30" class="edge">
<title>81-&gt;204</title>
<path fill="none" stroke="black" d="M1816.04,-28.75C1738.47,-63.19 1477.24,-179.17 1386.98,-219.24"/>
<polygon fill="black" stroke="black" points="1385.54,-216.06 1377.82,-223.31 1388.38,-222.46 1385.54,-216.06"/>
</g>
<!-- 81&#45;&gt;192 -->
<g id="edge31" class="edge">
<title>81-&gt;192</title>
<path fill="none" stroke="black" d="M1865.14,-19.21C1994.01,-20.45 2544.69,-28.23 2710,-72 2768.11,-87.39 2829.67,-122.16 2863.93,-143.4"/>
<polygon fill="black" stroke="black" points="2862.11,-146.38 2872.44,-148.74 2865.83,-140.46 2862.11,-146.38"/>
</g>
<!-- 81&#45;&gt;121 -->
<g id="edge32" class="edge">
<title>81-&gt;121</title>
<path fill="none" stroke="black" d="M1865.09,-19.62C1986.61,-22.6 2482.15,-36.71 2633,-72 2636.4,-72.8 2639.89,-73.84 2643.32,-75.03"/>
<polygon fill="black" stroke="black" points="2642.14,-78.33 2652.73,-78.64 2644.65,-71.79 2642.14,-78.33"/>
</g>
<!-- 86 -->
<g id="node64" class="node">
<title>86</title>
<ellipse fill="none" stroke="black" cx="410" cy="-18" rx="27" ry="18"/>
<text text-anchor="middle" x="410" y="-13.8" font-family="Times,serif" font-size="14.00">86</text>
</g>
<!-- 86&#45;&gt;205 -->
<g id="edge33" class="edge">
<title>86-&gt;205</title>
<path fill="none" stroke="black" d="M426.02,-32.71C468.79,-69.33 585.86,-169.53 636.33,-212.74"/>
<polygon fill="black" stroke="black" points="634.24,-215.56 644.11,-219.4 638.79,-210.24 634.24,-215.56"/>
</g>
</g>
</svg>