<svg id="Layer_1" data-name="Layer 1" xmlns="http://www.w3.org/2000/svg" viewBox="0 0 212.51 212.5"><defs><style>.cls-1,.cls-2{fill:#69c9ca;}.cls-1,.cls-7{stroke:#33669a;stroke-miterlimit:10;}.cls-1{stroke-width:2px;}.cls-3{fill:#81b454;}.cls-4{fill:#d2edf3;}.cls-5{fill:#99cc67;}.cls-6,.cls-7{fill:#fff;}.cls-6{opacity:0.65;}</style></defs><title>vplanet</title><path class="cls-1" d="M201.79,155.71c-.35.7-.72,1.38-1.09,2.07q-1.44,2.7-3,5.27c-.32.52-.63,1-1,1.55s-.51.79-.76,1.17c-.42.65-.84,1.27-1.27,1.88s-.87,1.26-1.31,1.87-.89,1.23-1.35,1.84c-.88,1.17-1.79,2.32-2.71,3.45-.5.62-1,1.23-1.55,1.84-2,2.27-4,4.45-6.12,6.52-.53.52-1.07,1-1.6,1.54-.84.79-1.68,1.57-2.55,2.31l-1.43,1.26c-.85.72-1.69,1.41-2.55,2.1l-1.38,1.06c-.87.66-1.74,1.31-2.63,1.94s-1.57,1.12-2.35,1.66l-.73.49c-1,.64-2,1.26-2.94,1.88s-2.12,1.3-3.21,1.91-2.19,1.23-3.3,1.81a101.67,101.67,0,0,1-10.35,4.72l-1.48.59a103.26,103.26,0,0,1-14.9,4.41c-2.77.6-5.59,1.1-8.39,1.47l-1.52.2-1,.11c-.53.06-1,.11-1.55.15h0A105.43,105.43,0,0,1,28,176.39h0A105.47,105.47,0,0,1,8.65,142.67c-.78-2.21-1.47-4.44-2.09-6.7a104.17,104.17,0,0,1-2.8-13.58c-.08-.58-.17-1.17-.23-1.76a104.16,104.16,0,0,1-.09-24.77c.32-2.75.75-5.51,1.31-8.26A98,98,0,0,1,7.74,76c.71-2.25,1.5-4.48,2.4-6.7q.91-2.32,2-4.63c.67-1.47,1.37-2.95,2.11-4.4l.26-.52c1.15-2.23,2.37-4.39,3.66-6.51,1.48-2.43,3-4.77,4.67-7a104.66,104.66,0,0,1,8.94-10.77q1.64-1.71,3.33-3.34A104.92,104.92,0,0,1,49.6,20.44c1.17-.77,2.34-1.51,3.54-2.23.53-.35,1.07-.67,1.61-1,.82-.47,1.64-.94,2.47-1.39s1.82-1,2.74-1.46c.74-.39,1.49-.76,2.25-1.12,1.27-.61,2.54-1.2,3.83-1.76A105.23,105.23,0,0,1,77.25,7.38q3.27-1,6.55-1.78l.32-.07a104.81,104.81,0,0,1,71.59,8.68c.35.18.71.36,1,.55a104.68,104.68,0,0,1,42.41,40.7l.44.77c1.15,2,2.24,4.11,3.25,6.22v0c.65,1.34,1.28,2.73,1.88,4.12.24.56.47,1.12.69,1.69q1.58,3.81,2.82,7.75c.74,2.34,1.4,4.69,2,7.08.16.63.3,1.25.43,1.87.11.44.2.86.29,1.3.14.62.26,1.24.37,1.85.42,2.15.77,4.29,1,6.44.19,1.38.32,2.77.46,4.16.14,1.57.25,3.14.3,4.72,0,.41,0,.83.05,1.23s0,.69,0,1c0,.9,0,1.8,0,2.7q0,1,0,2c0,.64,0,1.27-.05,1.92-.09,2.15-.24,4.32-.47,6.46,0,.42-.08.84-.14,1.28-.1.9-.21,1.8-.34,2.71-.37,2.65-.85,5.31-1.45,7.94,0,.18-.07.37-.11.55s-.12.52-.19.76c-.11.54-.25,1.06-.38,1.59s-.26,1-.4,1.53-.36,1.28-.54,1.93c-.61,2.1-1.28,4.2-2,6.29-.34,1-.72,1.93-1.09,2.89-.25.65-.51,1.3-.8,1.93s-.44,1.09-.68,1.63c-.4.95-.83,1.9-1.27,2.83S202.3,154.7,201.79,155.71Z" transform="translate(-1.74 -1.75)"/><path class="cls-2" d="M201.79,155.71c-.35.7-.72,1.38-1.09,2.07q-1.44,2.7-3,5.27c-.32.52-.63,1-1,1.55s-.51.79-.76,1.17c-.42.65-.84,1.27-1.27,1.88s-.87,1.26-1.31,1.87-.89,1.23-1.35,1.84c-.88,1.17-1.79,2.32-2.71,3.45-.5.62-1,1.23-1.55,1.84-2,2.27-4,4.45-6.12,6.52-.53.52-1.07,1-1.6,1.54-.84.79-1.68,1.57-2.55,2.31l-1.43,1.26c-.85.72-1.69,1.41-2.55,2.1l-1.38,1.06c-.87.66-1.74,1.31-2.63,1.94s-1.57,1.12-2.35,1.66l-.73.49c-1,.64-2,1.26-2.94,1.88s-2.12,1.3-3.21,1.91-2.19,1.23-3.3,1.81a101.67,101.67,0,0,1-10.35,4.72l-1.48.59a103.26,103.26,0,0,1-14.9,4.41c-2.77.6-5.59,1.1-8.39,1.47l-1.52.2-1,.11c-.53.06-1,.11-1.55.15h0A105.43,105.43,0,0,1,28,176.39h0A105.47,105.47,0,0,1,8.65,142.67c-.78-2.21-1.47-4.44-2.09-6.7a104.17,104.17,0,0,1-2.8-13.58c-.08-.58-.17-1.17-.23-1.76a104.16,104.16,0,0,1-.09-24.77c.32-2.75.75-5.51,1.31-8.26A98,98,0,0,1,7.74,76c.71-2.25,1.5-4.48,2.4-6.7q.91-2.32,2-4.63c.67-1.47,1.37-2.95,2.11-4.4l.26-.52c1.15-2.23,2.37-4.39,3.66-6.51,1.48-2.43,3-4.77,4.67-7a104.66,104.66,0,0,1,8.94-10.77q1.64-1.71,3.33-3.34A104.92,104.92,0,0,1,49.6,20.44c1.17-.77,2.34-1.51,3.54-2.23.53-.35,1.07-.67,1.61-1,.82-.47,1.64-.94,2.47-1.39s1.82-1,2.74-1.46c.74-.39,1.49-.76,2.25-1.12,1.27-.61,2.54-1.2,3.83-1.76A105.23,105.23,0,0,1,77.25,7.38q3.27-1,6.55-1.78l.32-.07a104.81,104.81,0,0,1,71.59,8.68c.35.18.71.36,1,.55a104.68,104.68,0,0,1,42.41,40.7l.44.77c1.15,2,2.24,4.11,3.25,6.22v0c.65,1.34,1.28,2.73,1.88,4.12.24.56.47,1.12.69,1.69q1.58,3.81,2.82,7.75c.74,2.34,1.4,4.69,2,7.08.16.63.3,1.25.43,1.87.11.44.2.86.29,1.3.14.62.26,1.24.37,1.85.42,2.15.77,4.29,1,6.44.19,1.38.32,2.77.46,4.16.14,1.57.25,3.14.3,4.72,0,.41,0,.83.05,1.23s0,.69,0,1c0,.9,0,1.8,0,2.7q0,1,0,2c0,.64,0,1.27-.05,1.92-.09,2.15-.24,4.32-.47,6.46,0,.42-.08.84-.14,1.28-.1.9-.21,1.8-.34,2.71-.37,2.65-.85,5.31-1.45,7.94,0,.18-.07.37-.11.55s-.12.52-.19.76c-.11.54-.25,1.06-.38,1.59s-.26,1-.4,1.53-.36,1.28-.54,1.93c-.61,2.1-1.28,4.2-2,6.29-.34,1-.72,1.93-1.09,2.89-.25.65-.51,1.3-.8,1.93s-.44,1.09-.68,1.63c-.4.95-.83,1.9-1.27,2.83S202.3,154.7,201.79,155.71Z" transform="translate(-1.74 -1.75)"/><path class="cls-3" d="M45.24,88.36l-18.87,28,10,23.18L20,153.47l-6.67.5A105.28,105.28,0,0,1,54.75,17.22L52.1,32.94l-1.28,24.4L68.21,56l8.53-25,10.82,8,5.19,24.44L74.15,78Z" transform="translate(-1.74 -1.75)"/><path class="cls-4" d="M119.29,212.63A105.41,105.41,0,0,1,28,176.39l19.31-2,5.42,8.69,10.48-.54,22.46,13.11,2.49,9,26.46.85Z" transform="translate(-1.74 -1.75)"/><path class="cls-4" d="M202.86,62.45l-8.81-1.55-9.29-11.38-9.46-4.81L162.43,61l-14.56,3.64-2.45-18.43-10.78-4-8.49-5-14.73,4.44-4.29-12.25L101,15.52,83.49,13.79,83.8,5.6a104.84,104.84,0,0,1,71.91,8.61c.35.18.71.36,1,.55A104.77,104.77,0,0,1,202.86,62.45Z" transform="translate(-1.74 -1.75)"/><path class="cls-5" d="M201.79,155.71A104.67,104.67,0,0,1,157,201.13l-5.37-7.73,16.17-21.66-6-11.59,3.88-7.61,21.11,3.68,13.71-18.39-20.87,2.86L174,119.21l-11.37-9-3.88-11.87,20,7.41,7.08-9.87L180.18,81l28.08-5a104.87,104.87,0,0,1-1.14,67.33A109,109,0,0,1,201.79,155.71Z" transform="translate(-1.74 -1.75)"/><path class="cls-6" d="M212.22,122.79a118.87,118.87,0,0,1-30.4,1.18c-17.32-1.51-34.15-6.2-50.49-12-12.06-4.29-23.83-9.35-34.44-16.31A48.85,48.85,0,0,1,83.2,84.9c-4.57-5.43,2.2-13.65,7.69-8.44a88.15,88.15,0,0,0,12,9.48c8.34,4.71,18.18,7.85,26.42,10.32a175.81,175.81,0,0,0,42.87,6.91l24.31,1.1c5.48.26,11.17.83,16.7.43,0,.35,0,.69,0,1,0,.9,0,1.8,0,2.7q0,1,0,2c0,.64,0,1.27-.05,1.92-.09,2.15-.24,4.32-.47,6.46,0,.42-.08.84-.14,1.28C212.46,121,212.35,121.88,212.22,122.79Z" transform="translate(-1.74 -1.75)"/><path class="cls-6" d="M177.5,187c-1.93,1.71-3.93,3.35-6,4.89-.59.45-1.17.88-1.77,1.31-31.07-6-60.94-15.46-89.23-29.74-3-1.5-1-6.27,2-4.78,3.93,2,7.88,3.86,11.86,5.67a2.54,2.54,0,0,1,1,.16,499.34,499.34,0,0,0,79.47,22C175.7,186.7,176.61,186.87,177.5,187Z" transform="translate(-1.74 -1.75)"/><path class="cls-6" d="M81,34.77A60.18,60.18,0,0,1,57.22,15.83c.9-.5,1.82-1,2.74-1.46.74-.39,1.49-.76,2.25-1.12,1.27-.61,2.54-1.2,3.83-1.76a52.5,52.5,0,0,0,19.67,15C91.34,29,86.51,37.22,81,34.77Z" transform="translate(-1.74 -1.75)"/><path class="cls-6" d="M50.18,78.46A54.48,54.48,0,0,1,41.81,76,94.77,94.77,0,0,1,24.5,69.39a25.57,25.57,0,0,1-10-9.62c1.15-2.23,2.37-4.39,3.66-6.51,1.48-2.43,3-4.77,4.67-7a5.47,5.47,0,0,1,3.42,2.52,39.87,39.87,0,0,0,19.16,16c2.38.73,4.78,1.44,7.16,2.13C59.77,69,57.73,80,50.18,78.46Z" transform="translate(-1.74 -1.75)"/><path class="cls-6" d="M55.19,150.7c-16.67,5.64-32.28.25-46.54-8-.78-2.21-1.47-4.44-2.09-6.7a104.17,104.17,0,0,1-2.8-13.58c-.08-.58-.17-1.17-.23-1.76A3.73,3.73,0,0,1,6.1,122.1,59.14,59.14,0,0,0,53.92,144C57.84,143.87,58.93,149.44,55.19,150.7Z" transform="translate(-1.74 -1.75)"/><path class="cls-6" d="M7.74,76a362.55,362.55,0,0,0,47.74,38.39c21.81,14.79,44.69,31.15,70.74,37.33a42.94,42.94,0,0,0,4.68,1c3.2.47,4.72-4.36,1.41-5-1.46-.28-2.9-.6-4.34-.94-11.73-3.13-23.73-11.35-33.83-17.11q-16.87-9.63-33-20.55a492.51,492.51,0,0,1-51-39.86Z" transform="translate(-1.74 -1.75)"/><path class="cls-7" d="M101.41,177.26q-8.11-18.7-15.55-35.54l-13.55-30.2Q56.36,76,52.7,69.16t-5.58-7.79q-2.86-1.42-11.83-1.61V52q22.89.63,27.86.63L97.4,52v7.75a63.61,63.61,0,0,0-11.64.89A5.64,5.64,0,0,0,82.85,62,3,3,0,0,0,82,64.13q0,2.67,6.3,16.92,3.61,8.2,3.86,8.87c.16.44.37,1,.62,1.64l24.14,55,21.19-49q.76-1.68,6.77-16.83,4.29-10.7,5.25-14.34a12,12,0,0,0,.19-2.14,4.07,4.07,0,0,0-.52-2.27,3.06,3.06,0,0,0-1.39-1.12,15.32,15.32,0,0,0-3.43-.44q-6.21-.54-10.5-.63V52l24.24.54L179.37,52v7.75q-9.26.81-10.78,1.87Q166,63.51,157.8,81.86L151,96.64l-12.88,28.69Q121.74,162,115.92,177.26Z" transform="translate(-1.74 -1.75)"/></svg>